<svg viewBox="0 0 1451 400" xmlns="http://www.w3.org/2000/svg"><g><g><g><g><g><line x1="34" y1="378" x2="29" y2="378" style="visibility: inherit;" fill="rgb(0, 0, 0)" stroke="rgb(204, 204, 204)" stroke-width="1px"></line><line x1="34" y1="351" x2="29" y2="351" style="visibility: inherit;" fill="rgb(0, 0, 0)" stroke="rgb(204, 204, 204)" stroke-width="1px"></line><line x1="34" y1="324" x2="29" y2="324" style="visibility: inherit;" fill="rgb(0, 0, 0)" stroke="rgb(204, 204, 204)" stroke-width="1px"></line><line x1="34" y1="297" x2="29" y2="297" style="visibility: inherit;" fill="rgb(0, 0, 0)" stroke="rgb(204, 204, 204)" stroke-width="1px"></line><line x1="34" y1="270" x2="29" y2="270" style="visibility: inherit;" fill="rgb(0, 0, 0)" stroke="rgb(204, 204, 204)" stroke-width="1px"></line><line x1="34" y1="243" x2="29" y2="243" style="visibility: inherit;" fill="rgb(0, 0, 0)" stroke="rgb(204, 204, 204)" stroke-width="1px"></line><line x1="34" y1="216" x2="29" y2="216" style="visibility: inherit;" fill="rgb(0, 0, 0)" stroke="rgb(204, 204, 204)" stroke-width="1px"></line><line x1="34" y1="189" x2="29" y2="189" style="visibility: inherit;" fill="rgb(0, 0, 0)" stroke="rgb(204, 204, 204)" stroke-width="1px"></line><line x1="34" y1="162" x2="29" y2="162" style="visibility: inherit;" fill="rgb(0, 0, 0)" stroke="rgb(204, 204, 204)" stroke-width="1px"></line><line x1="34" y1="134.99999999999997" x2="29" y2="134.99999999999997" style="visibility: inherit;" fill="rgb(0, 0, 0)" stroke="rgb(204, 204, 204)" stroke-width="1px"></line><line x1="34" y1="108" x2="29" y2="108" style="visibility: inherit;" fill="rgb(0, 0, 0)" stroke="rgb(204, 204, 204)" stroke-width="1px"></line><line x1="34" y1="81" x2="29" y2="81" style="visibility: inherit;" fill="rgb(0, 0, 0)" stroke="rgb(204, 204, 204)" stroke-width="1px"></line><line x1="34" y1="54" x2="29" y2="54" style="visibility: inherit;" fill="rgb(0, 0, 0)" stroke="rgb(204, 204, 204)" stroke-width="1px"></line><line x1="34" y1="27" x2="29" y2="27" style="visibility: inherit;" fill="rgb(0, 0, 0)" stroke="rgb(204, 204, 204)" stroke-width="1px"></line><line x1="34" y1="0" x2="29" y2="0" style="visibility: inherit;" fill="rgb(0, 0, 0)" stroke="rgb(204, 204, 204)" stroke-width="1px"></line></g><g transform="translate(24, 0)"><text x="0" y="378" dx="0em" dy="0.3em" style="text-anchor: end; visibility: hidden; font-family: &quot;Helvetica Neue&quot;, sans-serif; font-size: 12px; font-weight: 200;" fill="rgb(50, 49, 63)" stroke="none" stroke-width="1px">-4</text><text x="0" y="351" dx="0em" dy="0.3em" style="text-anchor: end; visibility: inherit; font-family: &quot;Helvetica Neue&quot;, sans-serif; font-size: 12px; font-weight: 200;" fill="rgb(50, 49, 63)" stroke="none" stroke-width="1px">-2</text><text x="0" y="324" dx="0em" dy="0.3em" style="text-anchor: end; visibility: inherit; font-family: &quot;Helvetica Neue&quot;, sans-serif; font-size: 12px; font-weight: 200;" fill="rgb(50, 49, 63)" stroke="none" stroke-width="1px">0</text><text x="0" y="297" dx="0em" dy="0.3em" style="text-anchor: end; visibility: inherit; font-family: &quot;Helvetica Neue&quot;, sans-serif; font-size: 12px; font-weight: 200;" fill="rgb(50, 49, 63)" stroke="none" stroke-width="1px">2</text><text x="0" y="270" dx="0em" dy="0.3em" style="text-anchor: end; visibility: inherit; font-family: &quot;Helvetica Neue&quot;, sans-serif; font-size: 12px; font-weight: 200;" fill="rgb(50, 49, 63)" stroke="none" stroke-width="1px">4</text><text x="0" y="243" dx="0em" dy="0.3em" style="text-anchor: end; visibility: inherit; font-family: &quot;Helvetica Neue&quot;, sans-serif; font-size: 12px; font-weight: 200;" fill="rgb(50, 49, 63)" stroke="none" stroke-width="1px">6</text><text x="0" y="216" dx="0em" dy="0.3em" style="text-anchor: end; visibility: inherit; font-family: &quot;Helvetica Neue&quot;, sans-serif; font-size: 12px; font-weight: 200;" fill="rgb(50, 49, 63)" stroke="none" stroke-width="1px">8</text><text x="0" y="189" dx="0em" dy="0.3em" style="text-anchor: end; visibility: inherit; font-family: &quot;Helvetica Neue&quot;, sans-serif; font-size: 12px; font-weight: 200;" fill="rgb(50, 49, 63)" stroke="none" stroke-width="1px">10</text><text x="0" y="162" dx="0em" dy="0.3em" style="text-anchor: end; visibility: inherit; font-family: &quot;Helvetica Neue&quot;, sans-serif; font-size: 12px; font-weight: 200;" fill="rgb(50, 49, 63)" stroke="none" stroke-width="1px">12</text><text x="0" y="134.99999999999997" dx="0em" dy="0.3em" style="text-anchor: end; visibility: inherit; font-family: &quot;Helvetica Neue&quot;, sans-serif; font-size: 12px; font-weight: 200;" fill="rgb(50, 49, 63)" stroke="none" stroke-width="1px">14</text><text x="0" y="108" dx="0em" dy="0.3em" style="text-anchor: end; visibility: inherit; font-family: &quot;Helvetica Neue&quot;, sans-serif; font-size: 12px; font-weight: 200;" fill="rgb(50, 49, 63)" stroke="none" stroke-width="1px">16</text><text x="0" y="81" dx="0em" dy="0.3em" style="text-anchor: end; visibility: inherit; font-family: &quot;Helvetica Neue&quot;, sans-serif; font-size: 12px; font-weight: 200;" fill="rgb(50, 49, 63)" stroke="none" stroke-width="1px">18</text><text x="0" y="54" dx="0em" dy="0.3em" style="text-anchor: end; visibility: inherit; font-family: &quot;Helvetica Neue&quot;, sans-serif; font-size: 12px; font-weight: 200;" fill="rgb(50, 49, 63)" stroke="none" stroke-width="1px">20</text><text x="0" y="27" dx="0em" dy="0.3em" style="text-anchor: end; visibility: inherit; font-family: &quot;Helvetica Neue&quot;, sans-serif; font-size: 12px; font-weight: 200;" fill="rgb(50, 49, 63)" stroke="none" stroke-width="1px">22</text><text x="0" y="0" dx="0em" dy="0.3em" style="text-anchor: end; visibility: hidden; font-family: &quot;Helvetica Neue&quot;, sans-serif; font-size: 12px; font-weight: 200;" fill="rgb(50, 49, 63)" stroke="none" stroke-width="1px">24</text></g><line x1="34" y1="0" x2="34" y2="378" fill="rgb(0, 0, 0)" stroke="rgb(204, 204, 204)" stroke-width="1px"></line></g></g><g transform="translate(34, 0)" clip-path="url(#clip_0)"><clipPath id="clip_0"><rect width="1417" height="378"></rect></clipPath><g><g><g><line x1="0" y1="0" x2="0" y2="378" fill="rgb(0, 0, 0)" stroke="rgb(60, 60, 60)" stroke-width="1px" opacity="0.25"></line><line x1="118.08333333333333" y1="0" x2="118.08333333333333" y2="378" fill="rgb(0, 0, 0)" stroke="rgb(60, 60, 60)" stroke-width="1px" opacity="0.25"></line><line x1="236.16666666666666" y1="0" x2="236.16666666666666" y2="378" fill="rgb(0, 0, 0)" stroke="rgb(60, 60, 60)" stroke-width="1px" opacity="0.25"></line><line x1="354.25" y1="0" x2="354.25" y2="378" fill="rgb(0, 0, 0)" stroke="rgb(60, 60, 60)" stroke-width="1px" opacity="0.25"></line><line x1="472.3333333333333" y1="0" x2="472.3333333333333" y2="378" fill="rgb(0, 0, 0)" stroke="rgb(60, 60, 60)" stroke-width="1px" opacity="0.25"></line><line x1="590.4166666666667" y1="0" x2="590.4166666666667" y2="378" fill="rgb(0, 0, 0)" stroke="rgb(60, 60, 60)" stroke-width="1px" opacity="0.25"></line><line x1="708.5" y1="0" x2="708.5" y2="378" fill="rgb(0, 0, 0)" stroke="rgb(60, 60, 60)" stroke-width="1px" opacity="0.25"></line><line x1="826.5833333333334" y1="0" x2="826.5833333333334" y2="378" fill="rgb(0, 0, 0)" stroke="rgb(60, 60, 60)" stroke-width="1px" opacity="0.25"></line><line x1="944.6666666666666" y1="0" x2="944.6666666666666" y2="378" fill="rgb(0, 0, 0)" stroke="rgb(60, 60, 60)" stroke-width="1px" opacity="0.25"></line><line x1="1062.75" y1="0" x2="1062.75" y2="378" fill="rgb(0, 0, 0)" stroke="rgb(60, 60, 60)" stroke-width="1px" opacity="0.25"></line><line x1="1180.8333333333335" y1="0" x2="1180.8333333333335" y2="378" fill="rgb(0, 0, 0)" stroke="rgb(60, 60, 60)" stroke-width="1px" opacity="0.25"></line><line x1="1298.9166666666665" y1="0" x2="1298.9166666666665" y2="378" fill="rgb(0, 0, 0)" stroke="rgb(60, 60, 60)" stroke-width="1px" opacity="0.25"></line><line x1="1417" y1="0" x2="1417" y2="378" fill="rgb(0, 0, 0)" stroke="rgb(60, 60, 60)" stroke-width="1px" opacity="0.25"></line></g><g><line x1="0" y1="378" x2="1417" y2="378" fill="rgb(0, 0, 0)" stroke="rgb(60, 60, 60)" stroke-width="1px" opacity="0.25"></line><line x1="0" y1="351" x2="1417" y2="351" fill="rgb(0, 0, 0)" stroke="rgb(60, 60, 60)" stroke-width="1px" opacity="0.25"></line><line x1="0" y1="324" x2="1417" y2="324" fill="rgb(0, 0, 0)" stroke="rgb(60, 60, 60)" stroke-width="1px" opacity="0.25"></line><line x1="0" y1="297" x2="1417" y2="297" fill="rgb(0, 0, 0)" stroke="rgb(60, 60, 60)" stroke-width="1px" opacity="0.25"></line><line x1="0" y1="270" x2="1417" y2="270" fill="rgb(0, 0, 0)" stroke="rgb(60, 60, 60)" stroke-width="1px" opacity="0.25"></line><line x1="0" y1="243" x2="1417" y2="243" fill="rgb(0, 0, 0)" stroke="rgb(60, 60, 60)" stroke-width="1px" opacity="0.25"></line><line x1="0" y1="216" x2="1417" y2="216" fill="rgb(0, 0, 0)" stroke="rgb(60, 60, 60)" stroke-width="1px" opacity="0.25"></line><line x1="0" y1="189" x2="1417" y2="189" fill="rgb(0, 0, 0)" stroke="rgb(60, 60, 60)" stroke-width="1px" opacity="0.25"></line><line x1="0" y1="162" x2="1417" y2="162" fill="rgb(0, 0, 0)" stroke="rgb(60, 60, 60)" stroke-width="1px" opacity="0.25"></line><line x1="0" y1="134.99999999999997" x2="1417" y2="134.99999999999997" fill="rgb(0, 0, 0)" stroke="rgb(60, 60, 60)" stroke-width="1px" opacity="0.25"></line><line x1="0" y1="108" x2="1417" y2="108" fill="rgb(0, 0, 0)" stroke="rgb(60, 60, 60)" stroke-width="1px" opacity="0.25"></line><line x1="0" y1="81" x2="1417" y2="81" fill="rgb(0, 0, 0)" stroke="rgb(60, 60, 60)" stroke-width="1px" opacity="0.25"></line><line x1="0" y1="54" x2="1417" y2="54" fill="rgb(0, 0, 0)" stroke="rgb(60, 60, 60)" stroke-width="1px" opacity="0.25"></line><line x1="0" y1="27" x2="1417" y2="27" fill="rgb(0, 0, 0)" stroke="rgb(60, 60, 60)" stroke-width="1px" opacity="0.25"></line><line x1="0" y1="0" x2="1417" y2="0" fill="rgb(0, 0, 0)" stroke="rgb(60, 60, 60)" stroke-width="1px" opacity="0.25"></line></g></g></g><g><g><line x1="0" y1="324" x2="1417" y2="324" fill="rgb(0, 0, 0)" stroke="rgb(153, 153, 153)" stroke-width="1.5px"></line></g></g><g><g><line x1="118.08333333333333" y1="0" x2="118.08333333333333" y2="378" fill="rgb(0, 0, 0)" stroke="rgb(153, 153, 153)" stroke-width="1.5px"></line></g></g><g><g><g><g><g><path stroke="rgb(0, 153, 136)" stroke-width="2px" d="M129.89166666666665,238.92537474632263L141.70000000000002,182.95521926879883L153.50833333333333,77.73134422302246L165.31666666666666,97.88058757781982L177.125,24.000011444091797L188.93333333333334,169.52238607406616L200.74166666666667,151.61194610595703L212.54999999999998,216.53731513023376L224.35833333333332,221.01492834091187L236.16666666666666,241.16417813301086L247.975,252.3582079410553L259.7833333333333,229.97014832496643L271.5916666666667,261.3134343624115L283.40000000000003,225.49253511428833L295.20833333333337,254.59701776504517L307.01666666666665,250.11940455436707L318.825,261.3134343624115L330.6333333333333,247.8805947303772L342.44166666666666,254.59701776504517L354.25,261.3134343624115L366.0583333333334,263.55223774909973L377.8666666666667,256.8358211517334L389.675,268.02985095977783L401.48333333333335,270.2686575651169L413.2916666666667,265.7910475730896L425.09999999999997,265.7910475730896L436.90833333333336,268.02985095977783L448.71666666666664,252.3582079410553L460.52500000000003,256.8358211517334L472.3333333333333,265.7910475730896L484.14166666666665,268.02985095977783L495.95,265.7910475730896L507.7583333333333,261.3134343624115L519.5666666666666,272.50746417045593L531.375,272.50746417045593L543.1833333333334,259.07462453842163L554.9916666666667,252.3582079410553L566.8000000000001,261.3134343624115L578.6083333333333,252.3582079410553L590.4166666666667,261.3134343624115L602.225,265.7910475730896L614.0333333333333,263.55223774909973L625.8416666666667,270.2686575651169L637.65,265.7910475730896L649.4583333333333,265.7910475730896L661.2666666666667,261.3134343624115L673.0749999999999,252.3582079410553L684.8833333333333,268.02985095977783L696.6916666666666,250.11940455436707L708.5,268.02985095977783L720.3083333333333,270.2686575651169L732.1166666666668,265.7910475730896L743.9250000000001,268.02985095977783L755.7333333333333,261.3134343624115L767.5416666666666,272.50746417045593L779.35,274.74626755714417L791.1583333333333,261.3134343624115L802.9666666666667,270.2686575651169L814.775,274.74626755714417L826.5833333333334,268.02985095977783L838.3916666666667,265.7910475730896L850.1999999999999,268.02985095977783L862.0083333333332,261.3134343624115L873.8166666666667,256.8358211517334L885.625,263.55223774909973L897.4333333333333,268.02985095977783L909.2416666666668,265.7910475730896L921.0500000000001,265.7910475730896L932.8583333333333,261.3134343624115L944.6666666666666,268.02985095977783L956.475,259.07462453842163L968.2833333333333,272.50746417045593L980.0916666666667,259.07462453842163L991.9,265.7910475730896L1003.7083333333334,265.7910475730896L1015.5166666666667,268.02985095977783L1027.325,272.50746417045593L1039.1333333333332,265.7910475730896L1050.9416666666666,265.7910475730896L1062.75,265.7910475730896L1074.5583333333334,247.8805947303772L1086.3666666666668,279.22388076782227L1098.175,276.9850741624832L1109.9833333333333,268.02985095977783L1121.7916666666665,259.07462453842163L1133.6000000000001,270.2686575651169L1145.4083333333333,265.7910475730896L1157.2166666666667,259.07462453842163L1169.0249999999999,250.11940455436707L1180.8333333333335,263.55223774909973L1192.6416666666667,265.7910475730896L1204.45,265.7910475730896L1216.2583333333332,261.3134343624115L1228.0666666666666,265.7910475730896L1239.875,265.7910475730896L1251.6833333333334,265.7910475730896L1263.4916666666668,252.3582079410553L1275.3,268.02985095977783L1287.1083333333333,270.2686575651169L1298.9166666666665,261.3134343624115" style="fill: none;" fill="none"></path></g><g><path stroke="rgb(238, 51, 119)" stroke-width="2px" d="M129.89166666666665,218.776118516922L141.70000000000002,124.74626684188843L153.50833333333333,79.97016048431396L165.31666666666666,79.97016048431396L177.125,113.552237033844L188.93333333333334,97.88058757781982L200.74166666666667,93.40298080444336L212.54999999999998,111.31343364715576L224.35833333333332,156.08955287933352L236.16666666666666,100.11940383911133L247.975,149.37312984466553L259.7833333333333,176.23880910873416L271.5916666666667,120.26866006851196L283.40000000000003,160.56715965270996L295.20833333333337,167.2835826873779L307.01666666666665,153.85074949264526L318.825,149.37312984466553L330.6333333333333,185.19403553009033L342.44166666666666,185.19403553009033L354.25,180.7164158821106L366.0583333333334,200.86567211151123L377.8666666666667,171.7611894607544L389.675,180.7164158821106L401.48333333333335,180.7164158821106L413.2916666666667,194.14924907684326L425.09999999999997,185.19403553009033L436.90833333333336,194.14924907684326L448.71666666666664,200.86567211151123L460.52500000000003,198.626868724823L472.3333333333333,205.3432788848877L484.14166666666665,194.14924907684326L495.95,207.5820951461792L507.7583333333333,203.10447549819946L519.5666666666666,189.6716423034668L531.375,196.38806533813477L543.1833333333334,194.14924907684326L554.9916666666667,196.38806533813477L566.8000000000001,198.626868724823L578.6083333333333,203.10447549819946L590.4166666666667,191.91044569015503L602.225,207.5820951461792L614.0333333333333,194.14924907684326L625.8416666666667,200.86567211151123L637.65,198.626868724823L649.4583333333333,178.47761249542236L661.2666666666667,196.38806533813477L673.0749999999999,207.5820951461792L684.8833333333333,194.14924907684326L696.6916666666666,185.19403553009033L708.5,205.3432788848877L720.3083333333333,207.5820951461792L732.1166666666668,194.14924907684326L743.9250000000001,196.38806533813477L755.7333333333333,198.626868724823L767.5416666666666,200.86567211151123L779.35,216.53731513023376L791.1583333333333,191.91044569015503L802.9666666666667,185.19403553009033L814.775,194.14924907684326L826.5833333333334,198.626868724823L838.3916666666667,200.86567211151123L850.1999999999999,212.05970191955566L862.0083333333332,187.43283891677854L873.8166666666667,196.38806533813477L885.625,205.3432788848877L897.4333333333333,191.91044569015503L909.2416666666668,194.14924907684326L921.0500000000001,191.91044569015503L932.8583333333333,187.43283891677854L944.6666666666666,218.776118516922L956.475,189.6716423034668L968.2833333333333,209.82089853286743L980.0916666666667,203.10447549819946L991.9,198.626868724823L1003.7083333333334,198.626868724823L1015.5166666666667,182.95521926879883L1027.325,207.5820951461792L1039.1333333333332,198.626868724823L1050.9416666666666,207.5820951461792L1062.75,200.86567211151123L1074.5583333333334,203.10447549819946L1086.3666666666668,203.10447549819946L1098.175,198.626868724823L1109.9833333333333,203.10447549819946L1121.7916666666665,203.10447549819946L1133.6000000000001,214.2985053062439L1145.4083333333333,203.10447549819946L1157.2166666666667,205.3432788848877L1169.0249999999999,200.86567211151123L1180.8333333333335,214.2985053062439L1192.6416666666667,212.05970191955566L1204.45,200.86567211151123L1216.2583333333332,205.3432788848877L1228.0666666666666,203.10447549819946L1239.875,194.14924907684326L1251.6833333333334,187.43283891677854L1263.4916666666668,205.3432788848877L1275.3,200.86567211151123L1287.1083333333333,212.05970191955566L1298.9166666666665,200.86567211151123" style="fill: none;" fill="none"></path></g><g><path stroke="rgb(204, 51, 17)" stroke-width="2px" d="M129.89166666666665,279.22388076782227L141.70000000000002,259.07462453842163L153.50833333333333,276.9850741624832L165.31666666666666,241.16417813301086L177.125,261.3134343624115L188.93333333333334,265.7910475730896L200.74166666666667,254.59701776504517L212.54999999999998,250.11940455436707L224.35833333333332,227.7313449382782L236.16666666666666,256.8358211517334L247.975,268.02985095977783L259.7833333333333,223.2537317276001L271.5916666666667,203.10447549819946L283.40000000000003,209.82089853286743L295.20833333333337,209.82089853286743L307.01666666666665,209.82089853286743L318.825,207.5820951461792L330.6333333333333,196.38806533813477L342.44166666666666,194.14924907684326L354.25,194.14924907684326L366.0583333333334,205.3432788848877L377.8666666666667,216.53731513023376L389.675,216.53731513023376L401.48333333333335,216.53731513023376L413.2916666666667,218.776118516922L425.09999999999997,214.2985053062439L436.90833333333336,207.5820951461792L448.71666666666664,212.05970191955566L460.52500000000003,200.86567211151123L472.3333333333333,207.5820951461792L484.14166666666665,194.14924907684326L495.95,209.82089853286743L507.7583333333333,200.86567211151123L519.5666666666666,205.3432788848877L531.375,203.10447549819946L543.1833333333334,205.3432788848877L554.9916666666667,205.3432788848877L566.8000000000001,198.626868724823L578.6083333333333,205.3432788848877L590.4166666666667,207.5820951461792L602.225,203.10447549819946L614.0333333333333,212.05970191955566L625.8416666666667,203.10447549819946L637.65,207.5820951461792L649.4583333333333,198.626868724823L661.2666666666667,209.82089853286743L673.0749999999999,209.82089853286743L684.8833333333333,212.05970191955566L696.6916666666666,212.05970191955566L708.5,207.5820951461792L720.3083333333333,209.82089853286743L732.1166666666668,207.5820951461792L743.9250000000001,205.3432788848877L755.7333333333333,209.82089853286743L767.5416666666666,212.05970191955566L779.35,209.82089853286743L791.1583333333333,203.10447549819946L802.9666666666667,203.10447549819946L814.775,207.5820951461792L826.5833333333334,209.82089853286743L838.3916666666667,205.3432788848877L850.1999999999999,203.10447549819946L862.0083333333332,212.05970191955566L873.8166666666667,209.82089853286743L885.625,212.05970191955566L897.4333333333333,205.3432788848877L909.2416666666668,205.3432788848877L921.0500000000001,216.53731513023376L932.8583333333333,203.10447549819946L944.6666666666666,209.82089853286743L956.475,203.10447549819946L968.2833333333333,214.2985053062439L980.0916666666667,214.2985053062439L991.9,214.2985053062439L1003.7083333333334,205.3432788848877L1015.5166666666667,207.5820951461792L1027.325,216.53731513023376L1039.1333333333332,203.10447549819946L1050.9416666666666,209.82089853286743L1062.75,205.3432788848877L1074.5583333333334,212.05970191955566L1086.3666666666668,205.3432788848877L1098.175,203.10447549819946L1109.9833333333333,212.05970191955566L1121.7916666666665,198.626868724823L1133.6000000000001,212.05970191955566L1145.4083333333333,200.86567211151123L1157.2166666666667,203.10447549819946L1169.0249999999999,212.05970191955566L1180.8333333333335,209.82089853286743L1192.6416666666667,205.3432788848877L1204.45,207.5820951461792L1216.2583333333332,205.3432788848877L1228.0666666666666,194.14924907684326L1239.875,209.82089853286743L1251.6833333333334,203.10447549819946L1263.4916666666668,209.82089853286743L1275.3,200.86567211151123L1287.1083333333333,205.3432788848877L1298.9166666666665,207.5820951461792" style="fill: none;" fill="none"></path></g><g><path stroke="rgb(0, 119, 187)" stroke-width="2px" d="M129.89166666666665,292.65671718120575L141.70000000000002,279.22388076782227L153.50833333333333,276.9850741624832L165.31666666666666,252.3582079410553L177.125,270.2686575651169L188.93333333333334,268.02985095977783L200.74166666666667,276.9850741624832L212.54999999999998,256.8358211517334L224.35833333333332,274.74626755714417L236.16666666666666,259.07462453842163L247.975,252.3582079410553L259.7833333333333,270.2686575651169L271.5916666666667,254.59701776504517L283.40000000000003,265.7910475730896L295.20833333333337,274.74626755714417L307.01666666666665,261.3134343624115L318.825,259.07462453842163L330.6333333333333,274.74626755714417L342.44166666666666,268.02985095977783L354.25,272.50746417045593L366.0583333333334,259.07462453842163L377.8666666666667,263.55223774909973L389.675,261.3134343624115L401.48333333333335,256.8358211517334L413.2916666666667,254.59701776504517L425.09999999999997,276.9850741624832L436.90833333333336,261.3134343624115L448.71666666666664,261.3134343624115L460.52500000000003,261.3134343624115L472.3333333333333,254.59701776504517L484.14166666666665,256.8358211517334L495.95,256.8358211517334L507.7583333333333,254.59701776504517L519.5666666666666,259.07462453842163L531.375,256.8358211517334L543.1833333333334,250.11940455436707L554.9916666666667,247.8805947303772L566.8000000000001,245.64179134368896L578.6083333333333,252.3582079410553L590.4166666666667,261.3134343624115L602.225,254.59701776504517L614.0333333333333,259.07462453842163L625.8416666666667,261.3134343624115L637.65,250.11940455436707L649.4583333333333,254.59701776504517L661.2666666666667,247.8805947303772L673.0749999999999,250.11940455436707L684.8833333333333,247.8805947303772L696.6916666666666,256.8358211517334L708.5,256.8358211517334L720.3083333333333,252.3582079410553L732.1166666666668,254.59701776504517L743.9250000000001,252.3582079410553L755.7333333333333,252.3582079410553L767.5416666666666,254.59701776504517L779.35,250.11940455436707L791.1583333333333,250.11940455436707L802.9666666666667,265.7910475730896L814.775,254.59701776504517L826.5833333333334,252.3582079410553L838.3916666666667,252.3582079410553L850.1999999999999,259.07462453842163L862.0083333333332,245.64179134368896L873.8166666666667,250.11940455436707L885.625,254.59701776504517L897.4333333333333,256.8358211517334L909.2416666666668,252.3582079410553L921.0500000000001,252.3582079410553L932.8583333333333,259.07462453842163L944.6666666666666,254.59701776504517L956.475,252.3582079410553L968.2833333333333,259.07462453842163L980.0916666666667,252.3582079410553L991.9,256.8358211517334L1003.7083333333334,252.3582079410553L1015.5166666666667,250.11940455436707L1027.325,247.8805947303772L1039.1333333333332,254.59701776504517L1050.9416666666666,254.59701776504517L1062.75,250.11940455436707L1074.5583333333334,252.3582079410553L1086.3666666666668,256.8358211517334L1098.175,252.3582079410553L1109.9833333333333,254.59701776504517L1121.7916666666665,252.3582079410553L1133.6000000000001,252.3582079410553L1145.4083333333333,252.3582079410553L1157.2166666666667,252.3582079410553L1169.0249999999999,250.11940455436707L1180.8333333333335,250.11940455436707L1192.6416666666667,252.3582079410553L1204.45,252.3582079410553L1216.2583333333332,259.07462453842163L1228.0666666666666,259.07462453842163L1239.875,252.3582079410553L1251.6833333333334,254.59701776504517L1263.4916666666668,250.11940455436707L1275.3,256.8358211517334L1287.1083333333333,254.59701776504517L1298.9166666666665,250.11940455436707" style="fill: none;" fill="none"></path></g><g><path stroke="rgb(187, 187, 187)" stroke-width="2px" d="M129.89166666666665,306.0895519852638L141.70000000000002,254.59701776504517L153.50833333333333,276.9850741624832L165.31666666666666,276.9850741624832L177.125,292.65671718120575L188.93333333333334,232.2089581489563L200.74166666666667,292.65671718120575L212.54999999999998,279.22388076782227L224.35833333333332,279.22388076782227L236.16666666666666,281.4626873731613L247.975,281.4626873731613L259.7833333333333,281.4626873731613L271.5916666666667,285.9402973651886L283.40000000000003,279.22388076782227L295.20833333333337,283.70149397850037L307.01666666666665,279.22388076782227L318.825,279.22388076782227L330.6333333333333,283.70149397850037L342.44166666666666,279.22388076782227L354.25,279.22388076782227L366.0583333333334,279.22388076782227L377.8666666666667,281.4626873731613L389.675,279.22388076782227L401.48333333333335,281.4626873731613L413.2916666666667,279.22388076782227L425.09999999999997,281.4626873731613L436.90833333333336,279.22388076782227L448.71666666666664,281.4626873731613L460.52500000000003,279.22388076782227L472.3333333333333,285.9402973651886L484.14166666666665,279.22388076782227L495.95,281.4626873731613L507.7583333333333,279.22388076782227L519.5666666666666,279.22388076782227L531.375,279.22388076782227L543.1833333333334,281.4626873731613L554.9916666666667,292.65671718120575L566.8000000000001,279.22388076782227L578.6083333333333,283.70149397850037L590.4166666666667,279.22388076782227L602.225,279.22388076782227L614.0333333333333,288.17910397052765L625.8416666666667,283.70149397850037L637.65,279.22388076782227L649.4583333333333,279.22388076782227L661.2666666666667,279.22388076782227L673.0749999999999,281.4626873731613L684.8833333333333,279.22388076782227L696.6916666666666,279.22388076782227L708.5,279.22388076782227L720.3083333333333,279.22388076782227L732.1166666666668,281.4626873731613L743.9250000000001,281.4626873731613L755.7333333333333,281.4626873731613L767.5416666666666,279.22388076782227L779.35,281.4626873731613L791.1583333333333,279.22388076782227L802.9666666666667,281.4626873731613L814.775,279.22388076782227L826.5833333333334,283.70149397850037L838.3916666666667,281.4626873731613L850.1999999999999,281.4626873731613L862.0083333333332,279.22388076782227L873.8166666666667,281.4626873731613L885.625,279.22388076782227L897.4333333333333,285.9402973651886L909.2416666666668,279.22388076782227L921.0500000000001,279.22388076782227L932.8583333333333,279.22388076782227L944.6666666666666,279.22388076782227L956.475,281.4626873731613L968.2833333333333,279.22388076782227L980.0916666666667,279.22388076782227L991.9,279.22388076782227L1003.7083333333334,281.4626873731613L1015.5166666666667,279.22388076782227L1027.325,279.22388076782227L1039.1333333333332,281.4626873731613L1050.9416666666666,283.70149397850037L1062.75,281.4626873731613L1074.5583333333334,279.22388076782227L1086.3666666666668,279.22388076782227L1098.175,279.22388076782227L1109.9833333333333,279.22388076782227L1121.7916666666665,279.22388076782227L1133.6000000000001,279.22388076782227L1145.4083333333333,281.4626873731613L1157.2166666666667,279.22388076782227L1169.0249999999999,281.4626873731613L1180.8333333333335,279.22388076782227L1192.6416666666667,281.4626873731613L1204.45,281.4626873731613L1216.2583333333332,281.4626873731613L1228.0666666666666,281.4626873731613L1239.875,281.4626873731613L1251.6833333333334,281.4626873731613L1263.4916666666668,281.4626873731613L1275.3,281.4626873731613L1287.1083333333333,279.22388076782227L1298.9166666666665,285.9402973651886" style="fill: none;" fill="none"></path></g><g><path stroke="rgb(255, 112, 67)" stroke-width="2px" d="M129.89166666666665,272.50746417045593L141.70000000000002,301.61194038391113L153.50833333333333,229.97014832496643L165.31666666666666,290.4179105758667L177.125,274.74626755714417L188.93333333333334,288.17910397052765L200.74166666666667,252.3582079410553L212.54999999999998,263.55223774909973L224.35833333333332,234.44776153564453L236.16666666666666,245.64179134368896L247.975,225.49253511428833L259.7833333333333,178.47761249542236L271.5916666666667,270.2686575651169L283.40000000000003,225.49253511428833L295.20833333333337,238.92537474632263L307.01666666666665,256.8358211517334L318.825,276.9850741624832L330.6333333333333,274.74626755714417L342.44166666666666,290.4179105758667L354.25,245.64179134368896L366.0583333333334,281.4626873731613L377.8666666666667,281.4626873731613L389.675,283.70149397850037L401.48333333333335,283.70149397850037L413.2916666666667,252.3582079410553L425.09999999999997,268.02985095977783L436.90833333333336,279.22388076782227L448.71666666666664,292.65671718120575L460.52500000000003,268.02985095977783L472.3333333333333,268.02985095977783L484.14166666666665,227.7313449382782L495.95,272.50746417045593L507.7583333333333,276.9850741624832L519.5666666666666,274.74626755714417L531.375,276.9850741624832L543.1833333333334,265.7910475730896L554.9916666666667,252.3582079410553L566.8000000000001,281.4626873731613L578.6083333333333,250.11940455436707L590.4166666666667,270.2686575651169L602.225,272.50746417045593L614.0333333333333,259.07462453842163L625.8416666666667,256.8358211517334L637.65,272.50746417045593L649.4583333333333,265.7910475730896L661.2666666666667,265.7910475730896L673.0749999999999,279.22388076782227L684.8833333333333,272.50746417045593L696.6916666666666,272.50746417045593L708.5,272.50746417045593L720.3083333333333,272.50746417045593L732.1166666666668,274.74626755714417L743.9250000000001,274.74626755714417L755.7333333333333,270.2686575651169L767.5416666666666,259.07462453842163L779.35,272.50746417045593L791.1583333333333,265.7910475730896L802.9666666666667,274.74626755714417L814.775,270.2686575651169L826.5833333333334,274.74626755714417L838.3916666666667,272.50746417045593L850.1999999999999,268.02985095977783L862.0083333333332,270.2686575651169L873.8166666666667,268.02985095977783L885.625,263.55223774909973L897.4333333333333,268.02985095977783L909.2416666666668,268.02985095977783L921.0500000000001,270.2686575651169L932.8583333333333,270.2686575651169L944.6666666666666,261.3134343624115L956.475,270.2686575651169L968.2833333333333,276.9850741624832L980.0916666666667,265.7910475730896L991.9,270.2686575651169L1003.7083333333334,265.7910475730896L1015.5166666666667,263.55223774909973L1027.325,270.2686575651169L1039.1333333333332,265.7910475730896L1050.9416666666666,263.55223774909973L1062.75,265.7910475730896L1074.5583333333334,276.9850741624832L1086.3666666666668,272.50746417045593L1098.175,270.2686575651169L1109.9833333333333,263.55223774909973L1121.7916666666665,270.2686575651169L1133.6000000000001,268.02985095977783L1145.4083333333333,263.55223774909973L1157.2166666666667,265.7910475730896L1169.0249999999999,272.50746417045593L1180.8333333333335,274.74626755714417L1192.6416666666667,272.50746417045593L1204.45,270.2686575651169L1216.2583333333332,263.55223774909973L1228.0666666666666,272.50746417045593L1239.875,265.7910475730896L1251.6833333333334,272.50746417045593L1263.4916666666668,272.50746417045593L1275.3,270.2686575651169L1287.1083333333333,261.3134343624115L1298.9166666666665,265.7910475730896L129.89166666666665,285.9402973651886L141.70000000000002,279.22388076782227L153.50833333333333,261.3134343624115L165.31666666666666,254.59701776504517L177.125,279.22388076782227L188.93333333333334,265.7910475730896L200.74166666666667,285.9402973651886L212.54999999999998,263.55223774909973L224.35833333333332,268.02985095977783L236.16666666666666,272.50746417045593L247.975,265.7910475730896L259.7833333333333,270.2686575651169L271.5916666666667,283.70149397850037L283.40000000000003,272.50746417045593L295.20833333333337,281.4626873731613L307.01666666666665,276.9850741624832L318.825,263.55223774909973L330.6333333333333,270.2686575651169L342.44166666666666,250.11940455436707L354.25,265.7910475730896L366.0583333333334,272.50746417045593L377.8666666666667,263.55223774909973L389.675,279.22388076782227L401.48333333333335,270.2686575651169L413.2916666666667,268.02985095977783L425.09999999999997,254.59701776504517L436.90833333333336,270.2686575651169L448.71666666666664,274.74626755714417L460.52500000000003,268.02985095977783L472.3333333333333,270.2686575651169L484.14166666666665,270.2686575651169L495.95,274.74626755714417L507.7583333333333,268.02985095977783L519.5666666666666,272.50746417045593L531.375,274.74626755714417L543.1833333333334,276.9850741624832L554.9916666666667,268.02985095977783L566.8000000000001,281.4626873731613L578.6083333333333,281.4626873731613L590.4166666666667,276.9850741624832L602.225,270.2686575651169L614.0333333333333,274.74626755714417L625.8416666666667,272.50746417045593L637.65,270.2686575651169L649.4583333333333,279.22388076782227L661.2666666666667,274.74626755714417L673.0749999999999,270.2686575651169L684.8833333333333,279.22388076782227L696.6916666666666,272.50746417045593L708.5,268.02985095977783L720.3083333333333,272.50746417045593L732.1166666666668,281.4626873731613L743.9250000000001,276.9850741624832L755.7333333333333,276.9850741624832L767.5416666666666,272.50746417045593L779.35,276.9850741624832L791.1583333333333,274.74626755714417L802.9666666666667,270.2686575651169L814.775,274.74626755714417L826.5833333333334,276.9850741624832L838.3916666666667,283.70149397850037L850.1999999999999,283.70149397850037L862.0083333333332,272.50746417045593L873.8166666666667,272.50746417045593L885.625,276.9850741624832L897.4333333333333,276.9850741624832L909.2416666666668,274.74626755714417L921.0500000000001,279.22388076782227L932.8583333333333,276.9850741624832L944.6666666666666,276.9850741624832L956.475,283.70149397850037L968.2833333333333,274.74626755714417L980.0916666666667,274.74626755714417L991.9,274.74626755714417L1003.7083333333334,274.74626755714417L1015.5166666666667,274.74626755714417L1027.325,279.22388076782227L1039.1333333333332,274.74626755714417L1050.9416666666666,276.9850741624832L1062.75,279.22388076782227L1074.5583333333334,279.22388076782227L1086.3666666666668,274.74626755714417L1098.175,276.9850741624832L1109.9833333333333,274.74626755714417L1121.7916666666665,281.4626873731613L1133.6000000000001,272.50746417045593L1145.4083333333333,276.9850741624832L1157.2166666666667,268.02985095977783L1169.0249999999999,279.22388076782227L1180.8333333333335,272.50746417045593L1192.6416666666667,276.9850741624832L1204.45,276.9850741624832L1216.2583333333332,276.9850741624832L1228.0666666666666,281.4626873731613L1239.875,276.9850741624832L1251.6833333333334,276.9850741624832L1263.4916666666668,279.22388076782227L1275.3,272.50746417045593L1287.1083333333333,276.9850741624832L1298.9166666666665,276.9850741624832" style="fill: none;" fill="none"></path></g></g></g></g></g></g><g transform="translate(34, 378)" clip-path="url(#clip_1)"><clipPath id="clip_1"><rect width="1417" height="22"></rect></clipPath><g><g><line x1="0" y1="0" x2="0" y2="5" style="visibility: inherit;" fill="rgb(0, 0, 0)" stroke="rgb(204, 204, 204)" stroke-width="1px"></line><line x1="118.08333333333333" y1="0" x2="118.08333333333333" y2="5" style="visibility: inherit;" fill="rgb(0, 0, 0)" stroke="rgb(204, 204, 204)" stroke-width="1px"></line><line x1="236.16666666666666" y1="0" x2="236.16666666666666" y2="5" style="visibility: inherit;" fill="rgb(0, 0, 0)" stroke="rgb(204, 204, 204)" stroke-width="1px"></line><line x1="354.25" y1="0" x2="354.25" y2="5" style="visibility: inherit;" fill="rgb(0, 0, 0)" stroke="rgb(204, 204, 204)" stroke-width="1px"></line><line x1="472.3333333333333" y1="0" x2="472.3333333333333" y2="5" style="visibility: inherit;" fill="rgb(0, 0, 0)" stroke="rgb(204, 204, 204)" stroke-width="1px"></line><line x1="590.4166666666667" y1="0" x2="590.4166666666667" y2="5" style="visibility: inherit;" fill="rgb(0, 0, 0)" stroke="rgb(204, 204, 204)" stroke-width="1px"></line><line x1="708.5" y1="0" x2="708.5" y2="5" style="visibility: inherit;" fill="rgb(0, 0, 0)" stroke="rgb(204, 204, 204)" stroke-width="1px"></line><line x1="826.5833333333334" y1="0" x2="826.5833333333334" y2="5" style="visibility: inherit;" fill="rgb(0, 0, 0)" stroke="rgb(204, 204, 204)" stroke-width="1px"></line><line x1="944.6666666666666" y1="0" x2="944.6666666666666" y2="5" style="visibility: inherit;" fill="rgb(0, 0, 0)" stroke="rgb(204, 204, 204)" stroke-width="1px"></line><line x1="1062.75" y1="0" x2="1062.75" y2="5" style="visibility: inherit;" fill="rgb(0, 0, 0)" stroke="rgb(204, 204, 204)" stroke-width="1px"></line><line x1="1180.8333333333335" y1="0" x2="1180.8333333333335" y2="5" style="visibility: inherit;" fill="rgb(0, 0, 0)" stroke="rgb(204, 204, 204)" stroke-width="1px"></line><line x1="1298.9166666666665" y1="0" x2="1298.9166666666665" y2="5" style="visibility: inherit;" fill="rgb(0, 0, 0)" stroke="rgb(204, 204, 204)" stroke-width="1px"></line><line x1="1417" y1="0" x2="1417" y2="5" style="visibility: inherit;" fill="rgb(0, 0, 0)" stroke="rgb(204, 204, 204)" stroke-width="1px"></line></g><g transform="translate(0, 8)"><text x="0" y="0" dx="0em" dy="0.95em" style="text-anchor: middle; visibility: hidden; font-family: &quot;Helvetica Neue&quot;, sans-serif; font-size: 12px; font-weight: 200;" fill="rgb(50, 49, 63)" stroke="none" stroke-width="1px">-10</text><text x="118.08333333333333" y="0" dx="0em" dy="0.95em" style="text-anchor: middle; visibility: inherit; font-family: &quot;Helvetica Neue&quot;, sans-serif; font-size: 12px; font-weight: 200;" fill="rgb(50, 49, 63)" stroke="none" stroke-width="1px">0</text><text x="236.16666666666666" y="0" dx="0em" dy="0.95em" style="text-anchor: middle; visibility: inherit; font-family: &quot;Helvetica Neue&quot;, sans-serif; font-size: 12px; font-weight: 200;" fill="rgb(50, 49, 63)" stroke="none" stroke-width="1px">10</text><text x="354.25" y="0" dx="0em" dy="0.95em" style="text-anchor: middle; visibility: inherit; font-family: &quot;Helvetica Neue&quot;, sans-serif; font-size: 12px; font-weight: 200;" fill="rgb(50, 49, 63)" stroke="none" stroke-width="1px">20</text><text x="472.3333333333333" y="0" dx="0em" dy="0.95em" style="text-anchor: middle; visibility: inherit; font-family: &quot;Helvetica Neue&quot;, sans-serif; font-size: 12px; font-weight: 200;" fill="rgb(50, 49, 63)" stroke="none" stroke-width="1px">30</text><text x="590.4166666666667" y="0" dx="0em" dy="0.95em" style="text-anchor: middle; visibility: inherit; font-family: &quot;Helvetica Neue&quot;, sans-serif; font-size: 12px; font-weight: 200;" fill="rgb(50, 49, 63)" stroke="none" stroke-width="1px">40</text><text x="708.5" y="0" dx="0em" dy="0.95em" style="text-anchor: middle; visibility: inherit; font-family: &quot;Helvetica Neue&quot;, sans-serif; font-size: 12px; font-weight: 200;" fill="rgb(50, 49, 63)" stroke="none" stroke-width="1px">50</text><text x="826.5833333333334" y="0" dx="0em" dy="0.95em" style="text-anchor: middle; visibility: inherit; font-family: &quot;Helvetica Neue&quot;, sans-serif; font-size: 12px; font-weight: 200;" fill="rgb(50, 49, 63)" stroke="none" stroke-width="1px">60</text><text x="944.6666666666666" y="0" dx="0em" dy="0.95em" style="text-anchor: middle; visibility: inherit; font-family: &quot;Helvetica Neue&quot;, sans-serif; font-size: 12px; font-weight: 200;" fill="rgb(50, 49, 63)" stroke="none" stroke-width="1px">70</text><text x="1062.75" y="0" dx="0em" dy="0.95em" style="text-anchor: middle; visibility: inherit; font-family: &quot;Helvetica Neue&quot;, sans-serif; font-size: 12px; font-weight: 200;" fill="rgb(50, 49, 63)" stroke="none" stroke-width="1px">80</text><text x="1180.8333333333335" y="0" dx="0em" dy="0.95em" style="text-anchor: middle; visibility: inherit; font-family: &quot;Helvetica Neue&quot;, sans-serif; font-size: 12px; font-weight: 200;" fill="rgb(50, 49, 63)" stroke="none" stroke-width="1px">90</text><text x="1298.9166666666665" y="0" dx="0em" dy="0.95em" style="text-anchor: middle; visibility: inherit; font-family: &quot;Helvetica Neue&quot;, sans-serif; font-size: 12px; font-weight: 200;" fill="rgb(50, 49, 63)" stroke="none" stroke-width="1px">100</text><text x="1417" y="0" dx="0em" dy="0.95em" style="text-anchor: middle; visibility: hidden; font-family: &quot;Helvetica Neue&quot;, sans-serif; font-size: 12px; font-weight: 200;" fill="rgb(50, 49, 63)" stroke="none" stroke-width="1px">110</text></g><line x1="0" y1="0" x2="1417" y2="0" fill="rgb(0, 0, 0)" stroke="rgb(204, 204, 204)" stroke-width="1px"></line></g></g></g></g></svg>