<svg viewBox="0 0 330 200" xmlns="http://www.w3.org/2000/svg"><g><g><g><g><g><line x1="46" y1="178" x2="41" y2="178" style="visibility: inherit;" fill="rgb(0, 0, 0)" stroke="rgb(204, 204, 204)" stroke-width="1px"></line><line x1="46" y1="160.2" x2="41" y2="160.2" style="visibility: inherit;" fill="rgb(0, 0, 0)" stroke="rgb(204, 204, 204)" stroke-width="1px"></line><line x1="46" y1="142.4" x2="41" y2="142.4" style="visibility: inherit;" fill="rgb(0, 0, 0)" stroke="rgb(204, 204, 204)" stroke-width="1px"></line><line x1="46" y1="124.6" x2="41" y2="124.6" style="visibility: inherit;" fill="rgb(0, 0, 0)" stroke="rgb(204, 204, 204)" stroke-width="1px"></line><line x1="46" y1="106.8" x2="41" y2="106.8" style="visibility: inherit;" fill="rgb(0, 0, 0)" stroke="rgb(204, 204, 204)" stroke-width="1px"></line><line x1="46" y1="89" x2="41" y2="89" style="visibility: inherit;" fill="rgb(0, 0, 0)" stroke="rgb(204, 204, 204)" stroke-width="1px"></line><line x1="46" y1="71.2" x2="41" y2="71.2" style="visibility: inherit;" fill="rgb(0, 0, 0)" stroke="rgb(204, 204, 204)" stroke-width="1px"></line><line x1="46" y1="53.400000000000006" x2="41" y2="53.400000000000006" style="visibility: inherit;" fill="rgb(0, 0, 0)" stroke="rgb(204, 204, 204)" stroke-width="1px"></line><line x1="46" y1="35.599999999999994" x2="41" y2="35.599999999999994" style="visibility: inherit;" fill="rgb(0, 0, 0)" stroke="rgb(204, 204, 204)" stroke-width="1px"></line><line x1="46" y1="17.799999999999983" x2="41" y2="17.799999999999983" style="visibility: inherit;" fill="rgb(0, 0, 0)" stroke="rgb(204, 204, 204)" stroke-width="1px"></line><line x1="46" y1="0" x2="41" y2="0" style="visibility: inherit;" fill="rgb(0, 0, 0)" stroke="rgb(204, 204, 204)" stroke-width="1px"></line></g><g transform="translate(36, 0)"><text x="0" y="178" dx="0em" dy="0.3em" style="text-anchor: end; visibility: hidden; font-family: &quot;Helvetica Neue&quot;, sans-serif; font-size: 12px; font-weight: 200;" fill="rgb(50, 49, 63)" stroke="none" stroke-width="1px">-50</text><text x="0" y="160.2" dx="0em" dy="0.3em" style="text-anchor: end; visibility: inherit; font-family: &quot;Helvetica Neue&quot;, sans-serif; font-size: 12px; font-weight: 200;" fill="rgb(50, 49, 63)" stroke="none" stroke-width="1px">0</text><text x="0" y="142.4" dx="0em" dy="0.3em" style="text-anchor: end; visibility: hidden; font-family: &quot;Helvetica Neue&quot;, sans-serif; font-size: 12px; font-weight: 200;" fill="rgb(50, 49, 63)" stroke="none" stroke-width="1px">50</text><text x="0" y="124.6" dx="0em" dy="0.3em" style="text-anchor: end; visibility: inherit; font-family: &quot;Helvetica Neue&quot;, sans-serif; font-size: 12px; font-weight: 200;" fill="rgb(50, 49, 63)" stroke="none" stroke-width="1px">100</text><text x="0" y="106.8" dx="0em" dy="0.3em" style="text-anchor: end; visibility: hidden; font-family: &quot;Helvetica Neue&quot;, sans-serif; font-size: 12px; font-weight: 200;" fill="rgb(50, 49, 63)" stroke="none" stroke-width="1px">150</text><text x="0" y="89" dx="0em" dy="0.3em" style="text-anchor: end; visibility: inherit; font-family: &quot;Helvetica Neue&quot;, sans-serif; font-size: 12px; font-weight: 200;" fill="rgb(50, 49, 63)" stroke="none" stroke-width="1px">200</text><text x="0" y="71.2" dx="0em" dy="0.3em" style="text-anchor: end; visibility: hidden; font-family: &quot;Helvetica Neue&quot;, sans-serif; font-size: 12px; font-weight: 200;" fill="rgb(50, 49, 63)" stroke="none" stroke-width="1px">250</text><text x="0" y="53.400000000000006" dx="0em" dy="0.3em" style="text-anchor: end; visibility: inherit; font-family: &quot;Helvetica Neue&quot;, sans-serif; font-size: 12px; font-weight: 200;" fill="rgb(50, 49, 63)" stroke="none" stroke-width="1px">300</text><text x="0" y="35.599999999999994" dx="0em" dy="0.3em" style="text-anchor: end; visibility: hidden; font-family: &quot;Helvetica Neue&quot;, sans-serif; font-size: 12px; font-weight: 200;" fill="rgb(50, 49, 63)" stroke="none" stroke-width="1px">350</text><text x="0" y="17.799999999999983" dx="0em" dy="0.3em" style="text-anchor: end; visibility: inherit; font-family: &quot;Helvetica Neue&quot;, sans-serif; font-size: 12px; font-weight: 200;" fill="rgb(50, 49, 63)" stroke="none" stroke-width="1px">400</text><text x="0" y="0" dx="0em" dy="0.3em" style="text-anchor: end; visibility: hidden; font-family: &quot;Helvetica Neue&quot;, sans-serif; font-size: 12px; font-weight: 200;" fill="rgb(50, 49, 63)" stroke="none" stroke-width="1px">450</text></g><line x1="46" y1="0" x2="46" y2="178" fill="rgb(0, 0, 0)" stroke="rgb(204, 204, 204)" stroke-width="1px"></line></g></g><g transform="translate(46, 0)" clip-path="url(#clip_0)"><clipPath id="clip_0"><rect width="284" height="178"></rect></clipPath><g><g><g><line x1="0" y1="0" x2="0" y2="178" fill="rgb(0, 0, 0)" stroke="rgb(60, 60, 60)" stroke-width="1px" opacity="0.25"></line><line x1="23.666666666666664" y1="0" x2="23.666666666666664" y2="178" fill="rgb(0, 0, 0)" stroke="rgb(60, 60, 60)" stroke-width="1px" opacity="0.25"></line><line x1="47.33333333333333" y1="0" x2="47.33333333333333" y2="178" fill="rgb(0, 0, 0)" stroke="rgb(60, 60, 60)" stroke-width="1px" opacity="0.25"></line><line x1="71" y1="0" x2="71" y2="178" fill="rgb(0, 0, 0)" stroke="rgb(60, 60, 60)" stroke-width="1px" opacity="0.25"></line><line x1="94.66666666666666" y1="0" x2="94.66666666666666" y2="178" fill="rgb(0, 0, 0)" stroke="rgb(60, 60, 60)" stroke-width="1px" opacity="0.25"></line><line x1="118.33333333333334" y1="0" x2="118.33333333333334" y2="178" fill="rgb(0, 0, 0)" stroke="rgb(60, 60, 60)" stroke-width="1px" opacity="0.25"></line><line x1="142" y1="0" x2="142" y2="178" fill="rgb(0, 0, 0)" stroke="rgb(60, 60, 60)" stroke-width="1px" opacity="0.25"></line><line x1="165.66666666666669" y1="0" x2="165.66666666666669" y2="178" fill="rgb(0, 0, 0)" stroke="rgb(60, 60, 60)" stroke-width="1px" opacity="0.25"></line><line x1="189.33333333333331" y1="0" x2="189.33333333333331" y2="178" fill="rgb(0, 0, 0)" stroke="rgb(60, 60, 60)" stroke-width="1px" opacity="0.25"></line><line x1="213" y1="0" x2="213" y2="178" fill="rgb(0, 0, 0)" stroke="rgb(60, 60, 60)" stroke-width="1px" opacity="0.25"></line><line x1="236.66666666666669" y1="0" x2="236.66666666666669" y2="178" fill="rgb(0, 0, 0)" stroke="rgb(60, 60, 60)" stroke-width="1px" opacity="0.25"></line><line x1="260.3333333333333" y1="0" x2="260.3333333333333" y2="178" fill="rgb(0, 0, 0)" stroke="rgb(60, 60, 60)" stroke-width="1px" opacity="0.25"></line><line x1="284" y1="0" x2="284" y2="178" fill="rgb(0, 0, 0)" stroke="rgb(60, 60, 60)" stroke-width="1px" opacity="0.25"></line></g><g><line x1="0" y1="178" x2="284" y2="178" fill="rgb(0, 0, 0)" stroke="rgb(60, 60, 60)" stroke-width="1px" opacity="0.25"></line><line x1="0" y1="160.2" x2="284" y2="160.2" fill="rgb(0, 0, 0)" stroke="rgb(60, 60, 60)" stroke-width="1px" opacity="0.25"></line><line x1="0" y1="142.4" x2="284" y2="142.4" fill="rgb(0, 0, 0)" stroke="rgb(60, 60, 60)" stroke-width="1px" opacity="0.25"></line><line x1="0" y1="124.6" x2="284" y2="124.6" fill="rgb(0, 0, 0)" stroke="rgb(60, 60, 60)" stroke-width="1px" opacity="0.25"></line><line x1="0" y1="106.8" x2="284" y2="106.8" fill="rgb(0, 0, 0)" stroke="rgb(60, 60, 60)" stroke-width="1px" opacity="0.25"></line><line x1="0" y1="89" x2="284" y2="89" fill="rgb(0, 0, 0)" stroke="rgb(60, 60, 60)" stroke-width="1px" opacity="0.25"></line><line x1="0" y1="71.2" x2="284" y2="71.2" fill="rgb(0, 0, 0)" stroke="rgb(60, 60, 60)" stroke-width="1px" opacity="0.25"></line><line x1="0" y1="53.400000000000006" x2="284" y2="53.400000000000006" fill="rgb(0, 0, 0)" stroke="rgb(60, 60, 60)" stroke-width="1px" opacity="0.25"></line><line x1="0" y1="35.599999999999994" x2="284" y2="35.599999999999994" fill="rgb(0, 0, 0)" stroke="rgb(60, 60, 60)" stroke-width="1px" opacity="0.25"></line><line x1="0" y1="17.799999999999983" x2="284" y2="17.799999999999983" fill="rgb(0, 0, 0)" stroke="rgb(60, 60, 60)" stroke-width="1px" opacity="0.25"></line><line x1="0" y1="0" x2="284" y2="0" fill="rgb(0, 0, 0)" stroke="rgb(60, 60, 60)" stroke-width="1px" opacity="0.25"></line></g></g></g><g><g><line x1="0" y1="160.2" x2="284" y2="160.2" fill="rgb(0, 0, 0)" stroke="rgb(153, 153, 153)" stroke-width="1.5px"></line></g></g><g><g><line x1="23.666666666666664" y1="0" x2="23.666666666666664" y2="178" fill="rgb(0, 0, 0)" stroke="rgb(153, 153, 153)" stroke-width="1.5px"></line></g></g><g><g><g><g><g><path stroke="rgb(0, 153, 136)" stroke-width="2px" d="M26.03333333333333,56.603999999999985L28.400000000000002,119.25999999999999L30.76666666666667,105.376L33.13333333333333,129.228L35.5,122.464L37.86666666666667,111.428L40.233333333333334,138.84L42.6,134.212L44.96666666666666,125.31200000000001L47.33333333333333,137.772L49.699999999999996,131.72L52.06666666666666,133.856L54.43333333333334,138.484L56.800000000000004,137.416L59.16666666666667,132.076L61.53333333333334,132.43200000000002L63.9,134.924L66.26666666666667,134.56799999999998L68.63333333333334,135.99200000000002L71,135.636L73.36666666666667,135.28L75.73333333333333,136.348L78.10000000000001,137.416L80.46666666666667,138.128L82.83333333333334,135.28L85.2,137.416L87.56666666666668,135.28L89.93333333333332,135.636L92.3,135.28L94.66666666666666,136.704L97.03333333333333,137.06L99.39999999999999,137.772L101.76666666666667,136.348L104.13333333333333,136.348L106.5,136.348L108.86666666666667,135.99200000000002L111.23333333333333,136.348L113.60000000000001,138.128L115.96666666666667,137.772L118.33333333333334,135.99200000000002L120.7,136.348L123.06666666666668,136.704L125.43333333333332,137.06L127.8,137.772L130.16666666666666,133.5L132.53333333333333,136.704L134.9,134.56799999999998L137.26666666666668,135.636L139.63333333333333,137.416L142,137.416L144.36666666666665,136.704L146.73333333333335,135.99200000000002L149.1,134.56799999999998L151.46666666666667,136.348L153.83333333333331,134.924L156.20000000000002,135.636L158.56666666666666,135.99200000000002L160.93333333333334,139.196L163.29999999999998,136.704L165.66666666666669,133.856L168.03333333333333,133.856L170.4,135.99200000000002L172.76666666666665,134.56799999999998L175.13333333333335,136.348L177.5,134.212L179.86666666666665,137.416L182.23333333333335,137.416L184.6,136.348L186.96666666666667,137.06L189.33333333333331,136.348L191.70000000000002,136.704L194.06666666666666,138.128L196.43333333333334,134.924L198.79999999999998,137.416L201.16666666666669,137.416L203.53333333333333,136.348L205.9,136.704L208.26666666666665,135.636L210.63333333333335,137.06L213,136.704L215.36666666666665,137.416L217.73333333333335,136.348L220.1,135.28L222.46666666666667,138.128L224.83333333333331,135.99200000000002L227.20000000000002,135.636L229.56666666666666,136.704L231.93333333333334,138.128L234.29999999999998,135.99200000000002L236.66666666666669,137.06L239.03333333333333,139.196L241.4,134.924L243.76666666666665,137.416L246.13333333333335,136.704L248.5,137.416L250.86666666666665,135.28L253.23333333333335,136.704L255.6,136.704L257.96666666666664,136.704L260.3333333333333,137.416" style="fill: none;" fill="none"></path></g><g><path stroke="rgb(238, 51, 119)" stroke-width="2px" d="M26.03333333333333,63.724000000000004L28.400000000000002,100.748L30.76666666666667,118.904L33.13333333333333,113.56400000000001L35.5,109.292L37.86666666666667,120.328L40.233333333333334,141.688L42.6,131.72L44.96666666666666,130.296L47.33333333333333,139.90800000000002L49.699999999999996,132.788L52.06666666666666,145.60399999999998L54.43333333333334,137.416L56.800000000000004,143.112L59.16666666666667,143.468L61.53333333333334,137.772L63.9,138.84L66.26666666666667,139.552L68.63333333333334,138.128L71,133.5L73.36666666666667,142.4L75.73333333333333,142.04399999999998L78.10000000000001,142.4L80.46666666666667,145.60399999999998L82.83333333333334,144.536L85.2,144.18L87.56666666666668,145.60399999999998L89.93333333333332,144.892L92.3,145.60399999999998L94.66666666666666,145.60399999999998L97.03333333333333,143.824L99.39999999999999,144.892L101.76666666666667,146.316L104.13333333333333,143.468L106.5,145.248L108.86666666666667,144.892L111.23333333333333,144.18L113.60000000000001,145.60399999999998L115.96666666666667,143.824L118.33333333333334,145.248L120.7,144.18L123.06666666666668,144.18L125.43333333333332,144.536L127.8,143.468L130.16666666666666,145.248L132.53333333333333,144.18L134.9,144.18L137.26666666666668,142.756L139.63333333333333,143.824L142,144.18L144.36666666666665,146.316L146.73333333333335,145.60399999999998L149.1,143.824L151.46666666666667,144.536L153.83333333333331,144.18L156.20000000000002,143.112L158.56666666666666,146.316L160.93333333333334,144.536L163.29999999999998,139.90800000000002L165.66666666666669,144.18L168.03333333333333,140.264L170.4,143.824L172.76666666666665,142.756L175.13333333333335,144.892L177.5,145.60399999999998L179.86666666666665,143.824L182.23333333333335,145.60399999999998L184.6,143.112L186.96666666666667,143.112L189.33333333333331,143.468L191.70000000000002,145.248L194.06666666666666,142.756L196.43333333333334,145.60399999999998L198.79999999999998,143.824L201.16666666666669,144.18L203.53333333333333,146.672L205.9,143.824L208.26666666666665,142.756L210.63333333333335,146.316L213,144.18L215.36666666666665,144.892L217.73333333333335,144.18L220.1,146.316L222.46666666666667,144.892L224.83333333333331,146.316L227.20000000000002,144.536L229.56666666666666,144.18L231.93333333333334,143.112L234.29999999999998,143.468L236.66666666666669,145.248L239.03333333333333,144.892L241.4,143.468L243.76666666666665,146.672L246.13333333333335,143.468L248.5,141.332L250.86666666666665,143.468L253.23333333333335,143.112L255.6,143.468L257.96666666666664,144.536L260.3333333333333,143.112" style="fill: none;" fill="none"></path></g><g><path stroke="rgb(204, 51, 17)" stroke-width="2px" d="M26.03333333333333,38.804L28.400000000000002,39.871999999999986L30.76666666666667,39.16L33.13333333333333,39.16L35.5,41.29599999999999L37.86666666666667,43.43199999999999L40.233333333333334,40.22800000000001L42.6,41.29599999999999L44.96666666666666,40.22800000000001L47.33333333333333,37.73599999999999L49.699999999999996,44.5L52.06666666666666,67.284L54.43333333333334,52.688L56.800000000000004,43.07599999999999L59.16666666666667,40.94L61.53333333333334,43.07599999999999L63.9,44.144000000000005L66.26666666666667,67.64L68.63333333333334,47.34800000000001L71,44.5L73.36666666666667,45.56800000000001L75.73333333333333,52.33200000000001L78.10000000000001,54.82400000000001L80.46666666666667,45.21199999999999L82.83333333333334,45.21199999999999L85.2,46.635999999999996L87.56666666666668,48.06L89.93333333333332,48.416L92.3,48.77199999999999L94.66666666666666,45.92400000000001L97.03333333333333,50.55200000000001L99.39999999999999,47.70400000000001L101.76666666666667,49.128000000000014L104.13333333333333,52.688L106.5,47.34800000000001L108.86666666666667,48.77199999999999L111.23333333333333,48.06L113.60000000000001,50.55200000000001L115.96666666666667,48.416L118.33333333333334,48.416L120.7,51.26400000000001L123.06666666666668,49.128000000000014L125.43333333333332,48.416L127.8,46.28L130.16666666666666,50.196L132.53333333333333,53.04400000000001L134.9,47.70400000000001L137.26666666666668,52.33200000000001L139.63333333333333,49.84L142,46.99199999999999L144.36666666666665,47.34800000000001L146.73333333333335,49.48400000000001L149.1,51.97600000000001L151.46666666666667,49.128000000000014L153.83333333333331,47.70400000000001L156.20000000000002,51.26400000000001L158.56666666666666,46.99199999999999L160.93333333333334,49.84L163.29999999999998,49.84L165.66666666666669,51.620000000000005L168.03333333333333,49.48400000000001L170.4,50.55200000000001L172.76666666666665,48.77199999999999L175.13333333333335,49.128000000000014L177.5,48.416L179.86666666666665,49.128000000000014L182.23333333333335,50.908L184.6,47.34800000000001L186.96666666666667,49.128000000000014L189.33333333333331,48.77199999999999L191.70000000000002,48.416L194.06666666666666,48.416L196.43333333333334,49.48400000000001L198.79999999999998,48.77199999999999L201.16666666666669,50.196L203.53333333333333,49.84L205.9,49.84L208.26666666666665,48.06L210.63333333333335,49.128000000000014L213,49.84L215.36666666666665,49.84L217.73333333333335,50.196L220.1,48.416L222.46666666666667,47.70400000000001L224.83333333333331,50.55200000000001L227.20000000000002,48.06L229.56666666666666,49.48400000000001L231.93333333333334,48.06L234.29999999999998,49.84L236.66666666666669,48.06L239.03333333333333,49.48400000000001L241.4,49.48400000000001L243.76666666666665,47.70400000000001L246.13333333333335,48.06L248.5,48.416L250.86666666666665,48.77199999999999L253.23333333333335,50.196L255.6,50.55200000000001L257.96666666666664,49.128000000000014L260.3333333333333,49.48400000000001" style="fill: none;" fill="none"></path></g><g><path stroke="rgb(0, 119, 187)" stroke-width="2px" d="M26.03333333333333,35.95599999999999L28.400000000000002,37.379999999999995L30.76666666666667,37.73599999999999L33.13333333333333,43.43199999999999L35.5,42.00800000000001L37.86666666666667,37.73599999999999L40.233333333333334,38.091999999999985L42.6,37.73599999999999L44.96666666666666,37.73599999999999L47.33333333333333,42.72L49.699999999999996,37.379999999999995L52.06666666666666,38.44800000000001L54.43333333333334,38.804L56.800000000000004,39.871999999999986L59.16666666666667,39.51599999999999L61.53333333333334,39.16L63.9,39.16L66.26666666666667,38.804L68.63333333333334,39.51599999999999L71,38.44800000000001L73.36666666666667,39.51599999999999L75.73333333333333,39.51599999999999L78.10000000000001,39.51599999999999L80.46666666666667,39.871999999999986L82.83333333333334,39.16L85.2,39.51599999999999L87.56666666666668,39.51599999999999L89.93333333333332,39.51599999999999L92.3,39.16L94.66666666666666,39.51599999999999L97.03333333333333,39.16L99.39999999999999,39.16L101.76666666666667,38.804L104.13333333333333,38.804L106.5,39.871999999999986L108.86666666666667,39.16L111.23333333333333,39.51599999999999L113.60000000000001,38.804L115.96666666666667,39.51599999999999L118.33333333333334,38.804L120.7,39.16L123.06666666666668,38.44800000000001L125.43333333333332,39.871999999999986L127.8,39.51599999999999L130.16666666666666,39.16L132.53333333333333,39.16L134.9,39.51599999999999L137.26666666666668,39.16L139.63333333333333,39.16L142,38.44800000000001L144.36666666666665,39.871999999999986L146.73333333333335,39.16L149.1,38.804L151.46666666666667,39.16L153.83333333333331,38.804L156.20000000000002,39.16L158.56666666666666,39.51599999999999L160.93333333333334,38.44800000000001L163.29999999999998,38.804L165.66666666666669,39.16L168.03333333333333,39.16L170.4,38.804L172.76666666666665,39.16L175.13333333333335,39.871999999999986L177.5,39.51599999999999L179.86666666666665,39.51599999999999L182.23333333333335,39.16L184.6,39.16L186.96666666666667,39.16L189.33333333333331,39.16L191.70000000000002,40.22800000000001L194.06666666666666,39.51599999999999L196.43333333333334,39.16L198.79999999999998,39.16L201.16666666666669,39.871999999999986L203.53333333333333,39.51599999999999L205.9,39.16L208.26666666666665,38.44800000000001L210.63333333333335,39.16L213,39.51599999999999L215.36666666666665,39.16L217.73333333333335,38.44800000000001L220.1,39.51599999999999L222.46666666666667,38.804L224.83333333333331,39.51599999999999L227.20000000000002,39.16L229.56666666666666,38.804L231.93333333333334,39.51599999999999L234.29999999999998,38.44800000000001L236.66666666666669,39.16L239.03333333333333,39.51599999999999L241.4,38.804L243.76666666666665,38.804L246.13333333333335,39.16L248.5,39.16L250.86666666666665,38.44800000000001L253.23333333333335,38.44800000000001L255.6,39.16L257.96666666666664,39.16L260.3333333333333,39.16" style="fill: none;" fill="none"></path></g><g><path stroke="rgb(187, 187, 187)" stroke-width="2px" d="M26.03333333333333,148.096L28.400000000000002,121.396L30.76666666666667,36.668000000000006L33.13333333333333,36.668000000000006L35.5,130.296L37.86666666666667,36.31199999999998L40.233333333333334,111.428L42.6,36.668000000000006L44.96666666666666,35.95599999999999L47.33333333333333,36.31199999999998L49.699999999999996,35.599999999999994L52.06666666666666,36.31199999999998L54.43333333333334,36.31199999999998L56.800000000000004,36.31199999999998L59.16666666666667,35.95599999999999L61.53333333333334,37.024L63.9,35.599999999999994L66.26666666666667,35.599999999999994L68.63333333333334,36.668000000000006L71,36.31199999999998L73.36666666666667,35.244L75.73333333333333,35.95599999999999L78.10000000000001,36.31199999999998L80.46666666666667,35.95599999999999L82.83333333333334,36.668000000000006L85.2,36.668000000000006L87.56666666666668,36.31199999999998L89.93333333333332,36.668000000000006L92.3,37.024L94.66666666666666,36.31199999999998L97.03333333333333,35.95599999999999L99.39999999999999,35.95599999999999L101.76666666666667,36.31199999999998L104.13333333333333,35.95599999999999L106.5,36.668000000000006L108.86666666666667,35.599999999999994L111.23333333333333,36.31199999999998L113.60000000000001,35.95599999999999L115.96666666666667,35.95599999999999L118.33333333333334,36.31199999999998L120.7,35.95599999999999L123.06666666666668,35.95599999999999L125.43333333333332,36.31199999999998L127.8,36.668000000000006L130.16666666666666,36.31199999999998L132.53333333333333,35.599999999999994L134.9,36.31199999999998L137.26666666666668,35.244L139.63333333333333,36.668000000000006L142,35.599999999999994L144.36666666666665,36.31199999999998L146.73333333333335,35.244L149.1,35.599999999999994L151.46666666666667,36.31199999999998L153.83333333333331,35.95599999999999L156.20000000000002,35.95599999999999L158.56666666666666,36.668000000000006L160.93333333333334,37.024L163.29999999999998,35.244L165.66666666666669,35.95599999999999L168.03333333333333,35.95599999999999L170.4,36.31199999999998L172.76666666666665,36.668000000000006L175.13333333333335,35.95599999999999L177.5,36.31199999999998L179.86666666666665,35.599999999999994L182.23333333333335,35.244L184.6,35.95599999999999L186.96666666666667,36.31199999999998L189.33333333333331,36.31199999999998L191.70000000000002,35.599999999999994L194.06666666666666,36.668000000000006L196.43333333333334,35.95599999999999L198.79999999999998,35.95599999999999L201.16666666666669,36.31199999999998L203.53333333333333,37.024L205.9,36.31199999999998L208.26666666666665,35.95599999999999L210.63333333333335,35.599999999999994L213,35.95599999999999L215.36666666666665,36.668000000000006L217.73333333333335,35.599999999999994L220.1,35.244L222.46666666666667,35.95599999999999L224.83333333333331,35.95599999999999L227.20000000000002,35.599999999999994L229.56666666666666,35.599999999999994L231.93333333333334,35.95599999999999L234.29999999999998,36.31199999999998L236.66666666666669,36.31199999999998L239.03333333333333,35.599999999999994L241.4,35.95599999999999L243.76666666666665,36.668000000000006L246.13333333333335,36.668000000000006L248.5,36.31199999999998L250.86666666666665,36.31199999999998L253.23333333333335,36.31199999999998L255.6,36.31199999999998L257.96666666666664,36.31199999999998L260.3333333333333,35.95599999999999" style="fill: none;" fill="none"></path></g><g><path stroke="rgb(255, 112, 67)" stroke-width="2px" d="M26.03333333333333,117.124L28.400000000000002,36.668000000000006L30.76666666666667,65.148L33.13333333333333,66.928L35.5,47.70400000000001L37.86666666666667,61.587999999999994L40.233333333333334,43.07599999999999L42.6,38.44800000000001L44.96666666666666,70.488L47.33333333333333,40.94L49.699999999999996,81.16799999999999L52.06666666666666,68.708L54.43333333333334,79.38799999999999L56.800000000000004,129.94L59.16666666666667,132.43200000000002L61.53333333333334,35.95599999999999L63.9,37.73599999999999L66.26666666666667,96.476L68.63333333333334,100.036L71,65.86L73.36666666666667,140.264L75.73333333333333,60.519999999999996L78.10000000000001,37.024L80.46666666666667,66.928L82.83333333333334,55.891999999999996L85.2,59.09599999999999L87.56666666666668,38.804L89.93333333333332,82.948L92.3,42.00800000000001L94.66666666666666,51.26400000000001L97.03333333333333,36.31199999999998L99.39999999999999,48.06L101.76666666666667,44.5L104.13333333333333,38.804L106.5,40.584L108.86666666666667,69.776L111.23333333333333,43.43199999999999L113.60000000000001,38.44800000000001L115.96666666666667,59.452L118.33333333333334,36.668000000000006L120.7,37.024L123.06666666666668,37.024L125.43333333333332,41.29599999999999L127.8,35.599999999999994L130.16666666666666,45.21199999999999L132.53333333333333,44.5L134.9,38.091999999999985L137.26666666666668,36.31199999999998L139.63333333333333,37.024L142,37.024L144.36666666666665,37.379999999999995L146.73333333333335,37.024L149.1,37.73599999999999L151.46666666666667,37.73599999999999L153.83333333333331,37.024L156.20000000000002,37.379999999999995L158.56666666666666,37.73599999999999L160.93333333333334,37.024L163.29999999999998,37.024L165.66666666666669,37.024L168.03333333333333,37.024L170.4,36.668000000000006L172.76666666666665,37.024L175.13333333333335,36.668000000000006L177.5,37.379999999999995L179.86666666666665,36.31199999999998L182.23333333333335,37.024L184.6,37.379999999999995L186.96666666666667,37.024L189.33333333333331,37.73599999999999L191.70000000000002,37.024L194.06666666666666,37.379999999999995L196.43333333333334,37.379999999999995L198.79999999999998,37.024L201.16666666666669,36.668000000000006L203.53333333333333,37.024L205.9,36.668000000000006L208.26666666666665,37.024L210.63333333333335,37.024L213,37.024L215.36666666666665,35.95599999999999L217.73333333333335,37.379999999999995L220.1,37.024L222.46666666666667,37.024L224.83333333333331,37.73599999999999L227.20000000000002,37.379999999999995L229.56666666666666,37.73599999999999L231.93333333333334,37.024L234.29999999999998,37.379999999999995L236.66666666666669,37.73599999999999L239.03333333333333,37.024L241.4,37.024L243.76666666666665,38.44800000000001L246.13333333333335,37.73599999999999L248.5,37.379999999999995L250.86666666666665,37.024L253.23333333333335,36.31199999999998L255.6,36.668000000000006L257.96666666666664,37.379999999999995L260.3333333333333,37.379999999999995L26.03333333333333,36.668000000000006L28.400000000000002,36.31199999999998L30.76666666666667,37.379999999999995L33.13333333333333,44.855999999999995L35.5,86.152L37.86666666666667,47.70400000000001L40.233333333333334,50.55200000000001L42.6,46.28L44.96666666666666,96.11999999999999L47.33333333333333,64.792L49.699999999999996,35.95599999999999L52.06666666666666,36.668000000000006L54.43333333333334,35.95599999999999L56.800000000000004,36.31199999999998L59.16666666666667,36.668000000000006L61.53333333333334,42.72L63.9,59.80799999999999L66.26666666666667,38.804L68.63333333333334,92.56L71,36.668000000000006L73.36666666666667,63.012L75.73333333333333,41.65199999999999L78.10000000000001,40.22800000000001L80.46666666666667,36.668000000000006L82.83333333333334,36.668000000000006L85.2,36.31199999999998L87.56666666666668,56.603999999999985L89.93333333333332,39.51599999999999L92.3,47.70400000000001L94.66666666666666,38.804L97.03333333333333,36.668000000000006L99.39999999999999,35.95599999999999L101.76666666666667,36.31199999999998L104.13333333333333,37.024L106.5,37.024L108.86666666666667,37.379999999999995L111.23333333333333,36.31199999999998L113.60000000000001,37.024L115.96666666666667,36.31199999999998L118.33333333333334,36.31199999999998L120.7,37.024L123.06666666666668,37.379999999999995L125.43333333333332,35.599999999999994L127.8,35.95599999999999L130.16666666666666,37.024L132.53333333333333,36.668000000000006L134.9,37.024L137.26666666666668,37.379999999999995L139.63333333333333,35.95599999999999L142,36.668000000000006L144.36666666666665,35.95599999999999L146.73333333333335,36.668000000000006L149.1,36.668000000000006L151.46666666666667,37.024L153.83333333333331,37.379999999999995L156.20000000000002,36.31199999999998L158.56666666666666,36.668000000000006L160.93333333333334,37.024L163.29999999999998,37.024L165.66666666666669,37.379999999999995L168.03333333333333,36.31199999999998L170.4,36.668000000000006L172.76666666666665,37.024L175.13333333333335,37.024L177.5,37.024L179.86666666666665,37.024L182.23333333333335,35.95599999999999L184.6,37.73599999999999L186.96666666666667,36.31199999999998L189.33333333333331,37.379999999999995L191.70000000000002,35.95599999999999L194.06666666666666,37.024L196.43333333333334,36.31199999999998L198.79999999999998,36.31199999999998L201.16666666666669,36.668000000000006L203.53333333333333,37.024L205.9,35.95599999999999L208.26666666666665,36.668000000000006L210.63333333333335,37.024L213,37.024L215.36666666666665,36.31199999999998L217.73333333333335,36.668000000000006L220.1,36.31199999999998L222.46666666666667,37.379999999999995L224.83333333333331,35.95599999999999L227.20000000000002,36.668000000000006L229.56666666666666,36.31199999999998L231.93333333333334,37.379999999999995L234.29999999999998,36.668000000000006L236.66666666666669,37.379999999999995L239.03333333333333,35.95599999999999L241.4,37.379999999999995L243.76666666666665,36.668000000000006L246.13333333333335,37.379999999999995L248.5,37.024L250.86666666666665,35.95599999999999L253.23333333333335,36.668000000000006L255.6,37.379999999999995L257.96666666666664,36.668000000000006L260.3333333333333,36.31199999999998" style="fill: none;" fill="none"></path></g></g></g></g></g></g><g transform="translate(46, 178)" clip-path="url(#clip_1)"><clipPath id="clip_1"><rect width="284" height="22"></rect></clipPath><g><g><line x1="0" y1="0" x2="0" y2="5" style="visibility: inherit;" fill="rgb(0, 0, 0)" stroke="rgb(204, 204, 204)" stroke-width="1px"></line><line x1="23.666666666666664" y1="0" x2="23.666666666666664" y2="5" style="visibility: inherit;" fill="rgb(0, 0, 0)" stroke="rgb(204, 204, 204)" stroke-width="1px"></line><line x1="47.33333333333333" y1="0" x2="47.33333333333333" y2="5" style="visibility: inherit;" fill="rgb(0, 0, 0)" stroke="rgb(204, 204, 204)" stroke-width="1px"></line><line x1="71" y1="0" x2="71" y2="5" style="visibility: inherit;" fill="rgb(0, 0, 0)" stroke="rgb(204, 204, 204)" stroke-width="1px"></line><line x1="94.66666666666666" y1="0" x2="94.66666666666666" y2="5" style="visibility: inherit;" fill="rgb(0, 0, 0)" stroke="rgb(204, 204, 204)" stroke-width="1px"></line><line x1="118.33333333333334" y1="0" x2="118.33333333333334" y2="5" style="visibility: inherit;" fill="rgb(0, 0, 0)" stroke="rgb(204, 204, 204)" stroke-width="1px"></line><line x1="142" y1="0" x2="142" y2="5" style="visibility: inherit;" fill="rgb(0, 0, 0)" stroke="rgb(204, 204, 204)" stroke-width="1px"></line><line x1="165.66666666666669" y1="0" x2="165.66666666666669" y2="5" style="visibility: inherit;" fill="rgb(0, 0, 0)" stroke="rgb(204, 204, 204)" stroke-width="1px"></line><line x1="189.33333333333331" y1="0" x2="189.33333333333331" y2="5" style="visibility: inherit;" fill="rgb(0, 0, 0)" stroke="rgb(204, 204, 204)" stroke-width="1px"></line><line x1="213" y1="0" x2="213" y2="5" style="visibility: inherit;" fill="rgb(0, 0, 0)" stroke="rgb(204, 204, 204)" stroke-width="1px"></line><line x1="236.66666666666669" y1="0" x2="236.66666666666669" y2="5" style="visibility: inherit;" fill="rgb(0, 0, 0)" stroke="rgb(204, 204, 204)" stroke-width="1px"></line><line x1="260.3333333333333" y1="0" x2="260.3333333333333" y2="5" style="visibility: inherit;" fill="rgb(0, 0, 0)" stroke="rgb(204, 204, 204)" stroke-width="1px"></line><line x1="284" y1="0" x2="284" y2="5" style="visibility: inherit;" fill="rgb(0, 0, 0)" stroke="rgb(204, 204, 204)" stroke-width="1px"></line></g><g transform="translate(0, 8)"><text x="0" y="0" dx="0em" dy="0.95em" style="text-anchor: middle; visibility: hidden; font-family: &quot;Helvetica Neue&quot;, sans-serif; font-size: 12px; font-weight: 200;" fill="rgb(50, 49, 63)" stroke="none" stroke-width="1px">-10</text><text x="23.666666666666664" y="0" dx="0em" dy="0.95em" style="text-anchor: middle; visibility: inherit; font-family: &quot;Helvetica Neue&quot;, sans-serif; font-size: 12px; font-weight: 200;" fill="rgb(50, 49, 63)" stroke="none" stroke-width="1px">0</text><text x="47.33333333333333" y="0" dx="0em" dy="0.95em" style="text-anchor: middle; visibility: inherit; font-family: &quot;Helvetica Neue&quot;, sans-serif; font-size: 12px; font-weight: 200;" fill="rgb(50, 49, 63)" stroke="none" stroke-width="1px">10</text><text x="71" y="0" dx="0em" dy="0.95em" style="text-anchor: middle; visibility: inherit; font-family: &quot;Helvetica Neue&quot;, sans-serif; font-size: 12px; font-weight: 200;" fill="rgb(50, 49, 63)" stroke="none" stroke-width="1px">20</text><text x="94.66666666666666" y="0" dx="0em" dy="0.95em" style="text-anchor: middle; visibility: inherit; font-family: &quot;Helvetica Neue&quot;, sans-serif; font-size: 12px; font-weight: 200;" fill="rgb(50, 49, 63)" stroke="none" stroke-width="1px">30</text><text x="118.33333333333334" y="0" dx="0em" dy="0.95em" style="text-anchor: middle; visibility: inherit; font-family: &quot;Helvetica Neue&quot;, sans-serif; font-size: 12px; font-weight: 200;" fill="rgb(50, 49, 63)" stroke="none" stroke-width="1px">40</text><text x="142" y="0" dx="0em" dy="0.95em" style="text-anchor: middle; visibility: inherit; font-family: &quot;Helvetica Neue&quot;, sans-serif; font-size: 12px; font-weight: 200;" fill="rgb(50, 49, 63)" stroke="none" stroke-width="1px">50</text><text x="165.66666666666669" y="0" dx="0em" dy="0.95em" style="text-anchor: middle; visibility: inherit; font-family: &quot;Helvetica Neue&quot;, sans-serif; font-size: 12px; font-weight: 200;" fill="rgb(50, 49, 63)" stroke="none" stroke-width="1px">60</text><text x="189.33333333333331" y="0" dx="0em" dy="0.95em" style="text-anchor: middle; visibility: inherit; font-family: &quot;Helvetica Neue&quot;, sans-serif; font-size: 12px; font-weight: 200;" fill="rgb(50, 49, 63)" stroke="none" stroke-width="1px">70</text><text x="213" y="0" dx="0em" dy="0.95em" style="text-anchor: middle; visibility: inherit; font-family: &quot;Helvetica Neue&quot;, sans-serif; font-size: 12px; font-weight: 200;" fill="rgb(50, 49, 63)" stroke="none" stroke-width="1px">80</text><text x="236.66666666666669" y="0" dx="0em" dy="0.95em" style="text-anchor: middle; visibility: inherit; font-family: &quot;Helvetica Neue&quot;, sans-serif; font-size: 12px; font-weight: 200;" fill="rgb(50, 49, 63)" stroke="none" stroke-width="1px">90</text><text x="260.3333333333333" y="0" dx="0em" dy="0.95em" style="text-anchor: middle; visibility: inherit; font-family: &quot;Helvetica Neue&quot;, sans-serif; font-size: 12px; font-weight: 200;" fill="rgb(50, 49, 63)" stroke="none" stroke-width="1px">100</text><text x="284" y="0" dx="0em" dy="0.95em" style="text-anchor: middle; visibility: hidden; font-family: &quot;Helvetica Neue&quot;, sans-serif; font-size: 12px; font-weight: 200;" fill="rgb(50, 49, 63)" stroke="none" stroke-width="1px">110</text></g><line x1="0" y1="0" x2="284" y2="0" fill="rgb(0, 0, 0)" stroke="rgb(204, 204, 204)" stroke-width="1px"></line></g></g></g></g></svg>