<svg viewBox="0 0 330 200" xmlns="http://www.w3.org/2000/svg"><g><g><g><g><g><line x1="46" y1="178" x2="41" y2="178" style="visibility: inherit;" fill="rgb(0, 0, 0)" stroke="rgb(204, 204, 204)" stroke-width="1px"></line><line x1="46" y1="165.2857142857143" x2="41" y2="165.2857142857143" style="visibility: inherit;" fill="rgb(0, 0, 0)" stroke="rgb(204, 204, 204)" stroke-width="1px"></line><line x1="46" y1="152.57142857142858" x2="41" y2="152.57142857142858" style="visibility: inherit;" fill="rgb(0, 0, 0)" stroke="rgb(204, 204, 204)" stroke-width="1px"></line><line x1="46" y1="139.8571428571429" x2="41" y2="139.8571428571429" style="visibility: inherit;" fill="rgb(0, 0, 0)" stroke="rgb(204, 204, 204)" stroke-width="1px"></line><line x1="46" y1="127.14285714285715" x2="41" y2="127.14285714285715" style="visibility: inherit;" fill="rgb(0, 0, 0)" stroke="rgb(204, 204, 204)" stroke-width="1px"></line><line x1="46" y1="114.42857142857143" x2="41" y2="114.42857142857143" style="visibility: inherit;" fill="rgb(0, 0, 0)" stroke="rgb(204, 204, 204)" stroke-width="1px"></line><line x1="46" y1="101.71428571428572" x2="41" y2="101.71428571428572" style="visibility: inherit;" fill="rgb(0, 0, 0)" stroke="rgb(204, 204, 204)" stroke-width="1px"></line><line x1="46" y1="89" x2="41" y2="89" style="visibility: inherit;" fill="rgb(0, 0, 0)" stroke="rgb(204, 204, 204)" stroke-width="1px"></line><line x1="46" y1="76.2857142857143" x2="41" y2="76.2857142857143" style="visibility: inherit;" fill="rgb(0, 0, 0)" stroke="rgb(204, 204, 204)" stroke-width="1px"></line><line x1="46" y1="63.571428571428584" x2="41" y2="63.571428571428584" style="visibility: inherit;" fill="rgb(0, 0, 0)" stroke="rgb(204, 204, 204)" stroke-width="1px"></line><line x1="46" y1="50.85714285714286" x2="41" y2="50.85714285714286" style="visibility: inherit;" fill="rgb(0, 0, 0)" stroke="rgb(204, 204, 204)" stroke-width="1px"></line><line x1="46" y1="38.14285714285714" x2="41" y2="38.14285714285714" style="visibility: inherit;" fill="rgb(0, 0, 0)" stroke="rgb(204, 204, 204)" stroke-width="1px"></line><line x1="46" y1="25.428571428571445" x2="41" y2="25.428571428571445" style="visibility: inherit;" fill="rgb(0, 0, 0)" stroke="rgb(204, 204, 204)" stroke-width="1px"></line><line x1="46" y1="12.714285714285722" x2="41" y2="12.714285714285722" style="visibility: inherit;" fill="rgb(0, 0, 0)" stroke="rgb(204, 204, 204)" stroke-width="1px"></line><line x1="46" y1="0" x2="41" y2="0" style="visibility: inherit;" fill="rgb(0, 0, 0)" stroke="rgb(204, 204, 204)" stroke-width="1px"></line></g><g transform="translate(36, 0)"><text x="0" y="178" dx="0em" dy="0.3em" style="text-anchor: end; visibility: hidden; font-family: &quot;Helvetica Neue&quot;, sans-serif; font-size: 12px; font-weight: 200;" fill="rgb(50, 49, 63)" stroke="none" stroke-width="1px">2.2</text><text x="0" y="165.2857142857143" dx="0em" dy="0.3em" style="text-anchor: end; visibility: inherit; font-family: &quot;Helvetica Neue&quot;, sans-serif; font-size: 12px; font-weight: 200;" fill="rgb(50, 49, 63)" stroke="none" stroke-width="1px">2.4</text><text x="0" y="152.57142857142858" dx="0em" dy="0.3em" style="text-anchor: end; visibility: hidden; font-family: &quot;Helvetica Neue&quot;, sans-serif; font-size: 12px; font-weight: 200;" fill="rgb(50, 49, 63)" stroke="none" stroke-width="1px">2.6</text><text x="0" y="139.8571428571429" dx="0em" dy="0.3em" style="text-anchor: end; visibility: inherit; font-family: &quot;Helvetica Neue&quot;, sans-serif; font-size: 12px; font-weight: 200;" fill="rgb(50, 49, 63)" stroke="none" stroke-width="1px">2.8</text><text x="0" y="127.14285714285715" dx="0em" dy="0.3em" style="text-anchor: end; visibility: hidden; font-family: &quot;Helvetica Neue&quot;, sans-serif; font-size: 12px; font-weight: 200;" fill="rgb(50, 49, 63)" stroke="none" stroke-width="1px">3</text><text x="0" y="114.42857142857143" dx="0em" dy="0.3em" style="text-anchor: end; visibility: inherit; font-family: &quot;Helvetica Neue&quot;, sans-serif; font-size: 12px; font-weight: 200;" fill="rgb(50, 49, 63)" stroke="none" stroke-width="1px">3.2</text><text x="0" y="101.71428571428572" dx="0em" dy="0.3em" style="text-anchor: end; visibility: hidden; font-family: &quot;Helvetica Neue&quot;, sans-serif; font-size: 12px; font-weight: 200;" fill="rgb(50, 49, 63)" stroke="none" stroke-width="1px">3.4</text><text x="0" y="89" dx="0em" dy="0.3em" style="text-anchor: end; visibility: inherit; font-family: &quot;Helvetica Neue&quot;, sans-serif; font-size: 12px; font-weight: 200;" fill="rgb(50, 49, 63)" stroke="none" stroke-width="1px">3.6</text><text x="0" y="76.2857142857143" dx="0em" dy="0.3em" style="text-anchor: end; visibility: hidden; font-family: &quot;Helvetica Neue&quot;, sans-serif; font-size: 12px; font-weight: 200;" fill="rgb(50, 49, 63)" stroke="none" stroke-width="1px">3.8</text><text x="0" y="63.571428571428584" dx="0em" dy="0.3em" style="text-anchor: end; visibility: inherit; font-family: &quot;Helvetica Neue&quot;, sans-serif; font-size: 12px; font-weight: 200;" fill="rgb(50, 49, 63)" stroke="none" stroke-width="1px">4</text><text x="0" y="50.85714285714286" dx="0em" dy="0.3em" style="text-anchor: end; visibility: hidden; font-family: &quot;Helvetica Neue&quot;, sans-serif; font-size: 12px; font-weight: 200;" fill="rgb(50, 49, 63)" stroke="none" stroke-width="1px">4.2</text><text x="0" y="38.14285714285714" dx="0em" dy="0.3em" style="text-anchor: end; visibility: inherit; font-family: &quot;Helvetica Neue&quot;, sans-serif; font-size: 12px; font-weight: 200;" fill="rgb(50, 49, 63)" stroke="none" stroke-width="1px">4.4</text><text x="0" y="25.428571428571445" dx="0em" dy="0.3em" style="text-anchor: end; visibility: hidden; font-family: &quot;Helvetica Neue&quot;, sans-serif; font-size: 12px; font-weight: 200;" fill="rgb(50, 49, 63)" stroke="none" stroke-width="1px">4.6</text><text x="0" y="12.714285714285722" dx="0em" dy="0.3em" style="text-anchor: end; visibility: inherit; font-family: &quot;Helvetica Neue&quot;, sans-serif; font-size: 12px; font-weight: 200;" fill="rgb(50, 49, 63)" stroke="none" stroke-width="1px">4.8</text><text x="0" y="0" dx="0em" dy="0.3em" style="text-anchor: end; visibility: hidden; font-family: &quot;Helvetica Neue&quot;, sans-serif; font-size: 12px; font-weight: 200;" fill="rgb(50, 49, 63)" stroke="none" stroke-width="1px">5</text></g><line x1="46" y1="0" x2="46" y2="178" fill="rgb(0, 0, 0)" stroke="rgb(204, 204, 204)" stroke-width="1px"></line></g></g><g transform="translate(46, 0)" clip-path="url(#clip_0)"><clipPath id="clip_0"><rect width="284" height="178"></rect></clipPath><g><g><g><line x1="0" y1="0" x2="0" y2="178" fill="rgb(0, 0, 0)" stroke="rgb(60, 60, 60)" stroke-width="1px" opacity="0.25"></line><line x1="23.666666666666664" y1="0" x2="23.666666666666664" y2="178" fill="rgb(0, 0, 0)" stroke="rgb(60, 60, 60)" stroke-width="1px" opacity="0.25"></line><line x1="47.33333333333333" y1="0" x2="47.33333333333333" y2="178" fill="rgb(0, 0, 0)" stroke="rgb(60, 60, 60)" stroke-width="1px" opacity="0.25"></line><line x1="71" y1="0" x2="71" y2="178" fill="rgb(0, 0, 0)" stroke="rgb(60, 60, 60)" stroke-width="1px" opacity="0.25"></line><line x1="94.66666666666666" y1="0" x2="94.66666666666666" y2="178" fill="rgb(0, 0, 0)" stroke="rgb(60, 60, 60)" stroke-width="1px" opacity="0.25"></line><line x1="118.33333333333334" y1="0" x2="118.33333333333334" y2="178" fill="rgb(0, 0, 0)" stroke="rgb(60, 60, 60)" stroke-width="1px" opacity="0.25"></line><line x1="142" y1="0" x2="142" y2="178" fill="rgb(0, 0, 0)" stroke="rgb(60, 60, 60)" stroke-width="1px" opacity="0.25"></line><line x1="165.66666666666669" y1="0" x2="165.66666666666669" y2="178" fill="rgb(0, 0, 0)" stroke="rgb(60, 60, 60)" stroke-width="1px" opacity="0.25"></line><line x1="189.33333333333331" y1="0" x2="189.33333333333331" y2="178" fill="rgb(0, 0, 0)" stroke="rgb(60, 60, 60)" stroke-width="1px" opacity="0.25"></line><line x1="213" y1="0" x2="213" y2="178" fill="rgb(0, 0, 0)" stroke="rgb(60, 60, 60)" stroke-width="1px" opacity="0.25"></line><line x1="236.66666666666669" y1="0" x2="236.66666666666669" y2="178" fill="rgb(0, 0, 0)" stroke="rgb(60, 60, 60)" stroke-width="1px" opacity="0.25"></line><line x1="260.3333333333333" y1="0" x2="260.3333333333333" y2="178" fill="rgb(0, 0, 0)" stroke="rgb(60, 60, 60)" stroke-width="1px" opacity="0.25"></line><line x1="284" y1="0" x2="284" y2="178" fill="rgb(0, 0, 0)" stroke="rgb(60, 60, 60)" stroke-width="1px" opacity="0.25"></line></g><g><line x1="0" y1="178" x2="284" y2="178" fill="rgb(0, 0, 0)" stroke="rgb(60, 60, 60)" stroke-width="1px" opacity="0.25"></line><line x1="0" y1="165.2857142857143" x2="284" y2="165.2857142857143" fill="rgb(0, 0, 0)" stroke="rgb(60, 60, 60)" stroke-width="1px" opacity="0.25"></line><line x1="0" y1="152.57142857142858" x2="284" y2="152.57142857142858" fill="rgb(0, 0, 0)" stroke="rgb(60, 60, 60)" stroke-width="1px" opacity="0.25"></line><line x1="0" y1="139.8571428571429" x2="284" y2="139.8571428571429" fill="rgb(0, 0, 0)" stroke="rgb(60, 60, 60)" stroke-width="1px" opacity="0.25"></line><line x1="0" y1="127.14285714285715" x2="284" y2="127.14285714285715" fill="rgb(0, 0, 0)" stroke="rgb(60, 60, 60)" stroke-width="1px" opacity="0.25"></line><line x1="0" y1="114.42857142857143" x2="284" y2="114.42857142857143" fill="rgb(0, 0, 0)" stroke="rgb(60, 60, 60)" stroke-width="1px" opacity="0.25"></line><line x1="0" y1="101.71428571428572" x2="284" y2="101.71428571428572" fill="rgb(0, 0, 0)" stroke="rgb(60, 60, 60)" stroke-width="1px" opacity="0.25"></line><line x1="0" y1="89" x2="284" y2="89" fill="rgb(0, 0, 0)" stroke="rgb(60, 60, 60)" stroke-width="1px" opacity="0.25"></line><line x1="0" y1="76.2857142857143" x2="284" y2="76.2857142857143" fill="rgb(0, 0, 0)" stroke="rgb(60, 60, 60)" stroke-width="1px" opacity="0.25"></line><line x1="0" y1="63.571428571428584" x2="284" y2="63.571428571428584" fill="rgb(0, 0, 0)" stroke="rgb(60, 60, 60)" stroke-width="1px" opacity="0.25"></line><line x1="0" y1="50.85714285714286" x2="284" y2="50.85714285714286" fill="rgb(0, 0, 0)" stroke="rgb(60, 60, 60)" stroke-width="1px" opacity="0.25"></line><line x1="0" y1="38.14285714285714" x2="284" y2="38.14285714285714" fill="rgb(0, 0, 0)" stroke="rgb(60, 60, 60)" stroke-width="1px" opacity="0.25"></line><line x1="0" y1="25.428571428571445" x2="284" y2="25.428571428571445" fill="rgb(0, 0, 0)" stroke="rgb(60, 60, 60)" stroke-width="1px" opacity="0.25"></line><line x1="0" y1="12.714285714285722" x2="284" y2="12.714285714285722" fill="rgb(0, 0, 0)" stroke="rgb(60, 60, 60)" stroke-width="1px" opacity="0.25"></line><line x1="0" y1="0" x2="284" y2="0" fill="rgb(0, 0, 0)" stroke="rgb(60, 60, 60)" stroke-width="1px" opacity="0.25"></line></g></g></g><g><g><line x1="0" y1="317.8571428571429" x2="284" y2="317.8571428571429" fill="rgb(0, 0, 0)" stroke="rgb(153, 153, 153)" stroke-width="1.5px"></line></g></g><g><g><line x1="23.666666666666664" y1="0" x2="23.666666666666664" y2="178" fill="rgb(0, 0, 0)" stroke="rgb(153, 153, 153)" stroke-width="1.5px"></line></g></g><g><g><g><g><g><path stroke="rgb(0, 153, 136)" stroke-width="2px" d="M26.03333333333333,31.506256716591963L28.400000000000002,66.51508467538017L30.76666666666667,89.42769527435304L33.13333333333333,114.95116829872131L35.5,122.31711387634277L37.86666666666667,119.94883298873901L40.233333333333334,118.47095744950431L42.6,133.4051893438612L44.96666666666666,133.62441454614913L47.33333333333333,134.77246710232328L49.699999999999996,138.55473841939656L52.06666666666666,138.26347385134017L54.43333333333334,141.47605368069242L56.800000000000004,141.23617001942227L59.16666666666667,141.14236576216564L61.53333333333334,143.24995296342033L63.9,143.15748248781478L66.26666666666667,143.46366115978788L68.63333333333334,145.49554109573364L71,142.9247375896999L73.36666666666667,143.33958915301733L75.73333333333333,145.19092355455672L78.10000000000001,145.17329641750882L80.46666666666667,143.62048660005843L82.83333333333334,146.1053672858647L85.2,145.47288196427482L87.56666666666668,145.3262417657035L89.93333333333332,144.31109751973835L92.3,144.83439462525504L94.66666666666666,144.78331685066223L97.03333333333333,144.1113030910492L99.39999999999999,145.15974640846252L101.76666666666667,144.7639618601118L104.13333333333333,146.55415449823653L106.5,146.670617886952L108.86666666666667,144.66544389724731L111.23333333333333,144.59714821406774L113.60000000000001,145.65135104315624L115.96666666666667,145.39647749492102L118.33333333333334,145.51982198442732L120.7,146.14048515047347L123.06666666666668,145.86070929254805L125.43333333333332,145.26359949793135L127.8,145.97743034362793L130.16666666666666,146.13067882401603L132.53333333333333,145.02818703651428L134.9,145.0393271446228L137.26666666666668,143.27872020857677L139.63333333333333,146.6862291949136L142,146.98860355785916L144.36666666666665,145.3161474636623L146.73333333333335,145.86774195943562L149.1,145.91001374380932L151.46666666666667,145.4043892451695L153.83333333333331,144.9791099343981L156.20000000000002,144.90625211170743L158.56666666666666,145.24474467550007L160.93333333333334,145.1534867286682L163.29999999999998,144.0686675480434L165.66666666666669,146.96262512888228L168.03333333333333,145.741320678166L170.4,145.0422069004604L172.76666666666665,144.8158884048462L175.13333333333335,144.74378841263908L177.5,145.34473282950268L179.86666666666665,146.6746495451246L182.23333333333335,143.16454546792167L184.6,144.1562272821154L186.96666666666667,144.86713290214539L189.33333333333331,144.3140985284533L191.70000000000002,144.78277121271407L194.06666666666666,145.5864807537624L196.43333333333334,145.5832978657314L198.79999999999998,143.55323672294617L201.16666666666669,144.5520269870758L203.53333333333333,145.60204659189498L205.9,147.046138048172L208.26666666666665,144.91689205169678L210.63333333333335,145.61489939689636L213,145.3739244597299L215.36666666666665,145.31055467469352L217.73333333333335,145.11674710682462L220.1,146.26226850918363L222.46666666666667,146.37147188186646L224.83333333333331,145.91772845813207L227.20000000000002,145.65962655203685L229.56666666666666,147.4808144569397L231.93333333333334,147.35357471874784L234.29999999999998,145.19568272999356L236.66666666666669,146.33265580449788L239.03333333333333,145.67422236715046L241.4,144.86175230571203L243.76666666666665,145.8521912779127L246.13333333333335,144.91622516087125L248.5,146.7110254083361L250.86666666666665,145.39922084127156L253.23333333333335,144.9962217467172L255.6,145.86777227265495L257.96666666666664,145.13457127979825L260.3333333333333,144.42415067127774" style="fill: none;" fill="none"></path></g><g><path stroke="rgb(238, 51, 119)" stroke-width="2px" d="M26.03333333333333,41.27672263554166L28.400000000000002,73.8976115839822L30.76666666666667,95.47055976731437L33.13333333333333,105.92912060873849L35.5,99.88381590162005L37.86666666666667,107.99426930291312L40.233333333333334,117.98380885805403L42.6,123.9063904966627L44.96666666666666,123.43356490135193L47.33333333333333,127.76308076722282L49.699999999999996,127.73930004664831L52.06666666666666,128.03386875561307L54.43333333333334,129.15200216429577L56.800000000000004,134.41707491874695L59.16666666666667,131.17454562868392L61.53333333333334,133.85617426463537L63.9,134.225161927087L66.26666666666667,137.79257314545768L68.63333333333334,134.6261603491647L71,138.33863547870092L73.36666666666667,138.02719746317183L75.73333333333333,137.66566685267858L78.10000000000001,137.32006583895003L80.46666666666667,139.00975499834334L82.83333333333334,138.78216334751676L85.2,137.32969028609142L87.56666666666668,139.920015505382L89.93333333333332,136.27897347722737L92.3,139.70961144992285L94.66666666666666,139.92218290056502L97.03333333333333,140.3835804121835L99.39999999999999,139.50731618063793L101.76666666666667,139.3626766545432L104.13333333333333,141.12675445420402L106.5,139.1087125028883L108.86666666666667,139.9794294152941L111.23333333333333,140.95375691141402L113.60000000000001,137.6714415209634L115.96666666666667,140.19738146236966L118.33333333333334,140.06689820970809L120.7,142.12416546685355L123.06666666666668,138.6698983396803L125.43333333333332,140.6808318410601L127.8,140.2030348777771L130.16666666666666,138.41302411896842L132.53333333333333,141.99172701154438L134.9,140.62914780208044L137.26666666666668,140.18468022346497L139.63333333333333,141.2347301415035L142,140.98065989358085L144.36666666666665,138.75083463532584L146.73333333333335,138.7437868118286L149.1,139.44458297320776L151.46666666666667,139.37877297401428L153.83333333333331,139.71283980778287L156.20000000000002,139.22901051385062L158.56666666666666,138.67197479520527L160.93333333333334,139.98056616101948L163.29999999999998,137.15052400316512L165.66666666666669,138.39904972485135L168.03333333333333,138.6270354475294L170.4,138.90384060995922L172.76666666666665,139.47166783469066L175.13333333333335,141.04125601904735L177.5,142.3135624613081L179.86666666666665,138.1987702846527L182.23333333333335,137.2923140866416L184.6,138.0682567187718L186.96666666666667,139.00751182011197L189.33333333333331,140.4181374822344L191.70000000000002,141.55611089297705L194.06666666666666,141.77322932652066L196.43333333333334,141.7202115058899L198.79999999999998,139.04453941753934L201.16666666666669,139.56719994544983L203.53333333333333,139.7644329071045L205.9,139.8712718486786L208.26666666666665,139.88491279738292L210.63333333333335,139.21800681522916L213,140.42219945362638L215.36666666666665,140.6845603670393L217.73333333333335,140.0260056768145L220.1,140.65201912607466L222.46666666666667,140.75982809066772L224.83333333333331,139.98032365526473L227.20000000000002,140.71535859789168L229.56666666666666,140.77512110982624L231.93333333333334,140.53243347576688L234.29999999999998,137.9197371006012L236.66666666666669,141.77165303911482L239.03333333333333,138.87436100414823L241.4,139.29865513529097L243.76666666666665,138.34290964262829L246.13333333333335,138.71233684676037L248.5,136.85791049684798L250.86666666666665,139.27249482699804L253.23333333333335,140.87044102805004L255.6,139.3434126036508L257.96666666666664,141.7366261141641L260.3333333333333,140.23963809013367" style="fill: none;" fill="none"></path></g><g><path stroke="rgb(204, 51, 17)" stroke-width="2px" d="M35.5,-2.6160611425127342L37.86666666666667,2.083457878657754L40.233333333333334,7.211242062704912L42.6,12.040319783347002L44.96666666666666,15.929596764700761L47.33333333333333,7.645145484379356L49.699999999999996,7.978954655783525L52.06666666666666,32.936373778751914L54.43333333333334,36.255277224949424L56.800000000000004,35.956934520176475L59.16666666666667,34.19910124370031L61.53333333333334,42.88229261125838L63.9,45.67253351211548L66.26666666666667,46.90118891852242L68.63333333333334,49.84323842184884L71,44.49907847813199L73.36666666666667,43.75631366457259L75.73333333333333,49.37547513416837L78.10000000000001,50.44804777417865L80.46666666666667,51.04403597967965L82.83333333333334,49.0602479662214L85.2,52.660761220114566L87.56666666666668,54.37700475965228L89.93333333333332,56.01052352360317L92.3,54.19109378542218L94.66666666666666,57.46025323867798L97.03333333333333,56.3977142742702L99.39999999999999,52.73696865354266L101.76666666666667,55.237506117139546L104.13333333333333,57.329027312142514L106.5,55.32120091574532L108.86666666666667,55.459914207458496L111.23333333333333,56.05947937284198L113.60000000000001,53.72548273631506L115.96666666666667,57.25691216332572L118.33333333333334,53.33756446838379L120.7,58.64877394267492L123.06666666666668,59.43982771464758L125.43333333333332,56.76650490079608L127.8,56.95465905325753L130.16666666666666,55.94580480030605L132.53333333333333,58.42375891549247L134.9,57.83116579055786L137.26666666666668,57.12001766477313L139.63333333333333,55.14286824635097L142,55.63864094870431L144.36666666666665,54.02640206473214L146.73333333333335,59.666661534990595L149.1,59.191683701106484L151.46666666666667,58.22978462491717L153.83333333333331,56.09609774180822L156.20000000000002,57.56380319595337L158.56666666666666,55.63703434807914L160.93333333333334,55.04356213978359L163.29999999999998,54.934010165078305L165.66666666666669,60.53916692733765L168.03333333333333,55.62909228461129L170.4,55.95144305910382L172.76666666666665,54.34132610048566L175.13333333333335,50.9104153088161L177.5,53.28484977994647L179.86666666666665,54.20464379446847L182.23333333333335,55.765198639460976L184.6,58.84938682828631L186.96666666666667,53.895570210048135L189.33333333333331,57.89579357419696L191.70000000000002,52.64875718525478L194.06666666666666,58.65162338529315L196.43333333333334,53.139558519635884L198.79999999999998,59.311754362923764L201.16666666666669,53.44138724463326L203.53333333333333,55.61605760029384L205.9,52.538356440407895L208.26666666666665,57.014588287898476L210.63333333333335,54.452029977525996L213,53.84315865380424L215.36666666666665,58.95342179707119L217.73333333333335,57.43560859135219L220.1,54.7573447227478L222.46666666666667,55.22804839270455L224.83333333333331,53.45166342599052L227.20000000000002,55.110705920628135L229.56666666666666,56.296346868787495L231.93333333333334,57.49938760484967L234.29999999999998,58.13766275133405L236.66666666666669,52.681556088583804L239.03333333333333,57.673112664903925L241.4,56.03956358773368L243.76666666666665,48.82529020309448L246.13333333333335,53.65348884037563L248.5,52.71065677915301L250.86666666666665,59.968581199645996L253.23333333333335,56.313291958400185L255.6,53.20833921432495L257.96666666666664,50.15698024204799L260.3333333333333,55.64185414995465" style="fill: none;" fill="none"></path></g><g><path stroke="rgb(0, 119, 187)" stroke-width="2px" d="M40.233333333333334,-5.9295991488865525L42.6,2.000369344438809L44.96666666666666,-1.2498443467276559L47.33333333333333,3.1971049308776855L49.699999999999996,13.861113616398399L52.06666666666666,23.115011964525507L54.43333333333334,25.510180677686435L56.800000000000004,25.133963312421542L59.16666666666667,33.17008869988578L61.53333333333334,25.74371371950423L63.9,34.435635294233066L66.26666666666667,35.1128932407924L68.63333333333334,33.715059757232666L71,28.197871957506464L73.36666666666667,31.677950790950234L75.73333333333333,35.329875264848994L78.10000000000001,40.29157332011633L80.46666666666667,39.02699674878801L82.83333333333334,39.283780029841836L85.2,39.72032070159912L87.56666666666668,40.17159359795707L89.93333333333332,36.34733847209387L92.3,40.2092729296003L94.66666666666666,38.926841872079024L97.03333333333333,42.16150488172258L99.39999999999999,36.32157223565238L101.76666666666667,37.606488977159785L104.13333333333333,37.126994473593584L106.5,34.627063274383545L108.86666666666667,36.06942687715804L111.23333333333333,38.00798756735665L113.60000000000001,35.56819779532296L115.96666666666667,38.92899411065238L118.33333333333334,38.55726310185025L120.7,36.72886065074377L123.06666666666668,36.46780320576261L125.43333333333332,35.01358713422502L127.8,40.12112208775113L130.16666666666666,36.47680623190743L132.53333333333333,38.25097833360945L134.9,38.12987702233451L137.26666666666668,31.38467039380754L139.63333333333333,39.05300549098425L142,36.63946696690152L144.36666666666665,41.94203717367989L146.73333333333335,39.09929377692086L149.1,40.746089730943964L151.46666666666667,41.77007028034757L153.83333333333331,38.00410747528076L156.20000000000002,34.61615051542009L158.56666666666666,38.29208305903845L160.93333333333334,35.807945047106074L163.29999999999998,37.36031532287598L165.66666666666669,40.21006107330322L168.03333333333333,42.17344829014371L170.4,41.79635184151786L172.76666666666665,38.30460241862707L175.13333333333335,35.837833881378174L177.5,39.09277643476213L179.86666666666665,37.09404400416784L182.23333333333335,34.26239524568831L184.6,35.510814871106845L186.96666666666667,37.7522349357605L189.33333333333331,32.65740122113908L191.70000000000002,36.95281471524919L194.06666666666666,38.204447541918086L196.43333333333334,32.28727681296212L198.79999999999998,37.279560906546465L201.16666666666669,39.20830011367798L203.53333333333333,39.71231801169259L205.9,40.8500337600708L208.26666666666665,35.12059279850553L210.63333333333335,35.48262357711792L213,37.98913274492537L215.36666666666665,33.37364196777344L217.73333333333335,37.62370688574654L220.1,36.31614616939001L222.46666666666667,40.361839362553184L224.83333333333331,36.14357301167081L227.20000000000002,36.13857133047921L229.56666666666666,36.31560053144182L231.93333333333334,38.189988136291504L234.29999999999998,38.20205279759L236.66666666666669,38.31727334431241L239.03333333333333,34.26912478038244L241.4,34.9647525378636L243.76666666666665,37.00025490352087L246.13333333333335,40.29766627720426L248.5,36.271100725446445L250.86666666666665,36.50939294270108L253.23333333333335,41.91354274749756L255.6,37.91153090340751L257.96666666666664,42.513168539319736L260.3333333333333,35.21201746804374" style="fill: none;" fill="none"></path></g><g><path stroke="rgb(187, 187, 187)" stroke-width="2px" d="M111.23333333333333,-0.9335562161036819L113.60000000000001,0.6140851974487305L115.96666666666667,-1.622969763619551L149.1,-0.6440043449401855L151.46666666666667,0.15080826623099597L153.83333333333331,-3.100860459463945L182.23333333333335,-1.6399754796709374L184.6,0.42344536100114283L186.96666666666667,-3.55431590761458L220.1,-1.6465837614876762L222.46666666666667,1.1412927082606643L224.83333333333331,-2.6942692484174415L239.03333333333333,-3.887821946825312L241.4,1.0314982278006255L243.76666666666665,0.6306362152099609L246.13333333333335,-1.1271061216081932" style="fill: none;" fill="none"></path></g><g><path style="fill: none;" fill="none" stroke="none" stroke-width="1px"></path></g></g></g></g></g></g><g transform="translate(46, 178)" clip-path="url(#clip_1)"><clipPath id="clip_1"><rect width="284" height="22"></rect></clipPath><g><g><line x1="0" y1="0" x2="0" y2="5" style="visibility: inherit;" fill="rgb(0, 0, 0)" stroke="rgb(204, 204, 204)" stroke-width="1px"></line><line x1="23.666666666666664" y1="0" x2="23.666666666666664" y2="5" style="visibility: inherit;" fill="rgb(0, 0, 0)" stroke="rgb(204, 204, 204)" stroke-width="1px"></line><line x1="47.33333333333333" y1="0" x2="47.33333333333333" y2="5" style="visibility: inherit;" fill="rgb(0, 0, 0)" stroke="rgb(204, 204, 204)" stroke-width="1px"></line><line x1="71" y1="0" x2="71" y2="5" style="visibility: inherit;" fill="rgb(0, 0, 0)" stroke="rgb(204, 204, 204)" stroke-width="1px"></line><line x1="94.66666666666666" y1="0" x2="94.66666666666666" y2="5" style="visibility: inherit;" fill="rgb(0, 0, 0)" stroke="rgb(204, 204, 204)" stroke-width="1px"></line><line x1="118.33333333333334" y1="0" x2="118.33333333333334" y2="5" style="visibility: inherit;" fill="rgb(0, 0, 0)" stroke="rgb(204, 204, 204)" stroke-width="1px"></line><line x1="142" y1="0" x2="142" y2="5" style="visibility: inherit;" fill="rgb(0, 0, 0)" stroke="rgb(204, 204, 204)" stroke-width="1px"></line><line x1="165.66666666666669" y1="0" x2="165.66666666666669" y2="5" style="visibility: inherit;" fill="rgb(0, 0, 0)" stroke="rgb(204, 204, 204)" stroke-width="1px"></line><line x1="189.33333333333331" y1="0" x2="189.33333333333331" y2="5" style="visibility: inherit;" fill="rgb(0, 0, 0)" stroke="rgb(204, 204, 204)" stroke-width="1px"></line><line x1="213" y1="0" x2="213" y2="5" style="visibility: inherit;" fill="rgb(0, 0, 0)" stroke="rgb(204, 204, 204)" stroke-width="1px"></line><line x1="236.66666666666669" y1="0" x2="236.66666666666669" y2="5" style="visibility: inherit;" fill="rgb(0, 0, 0)" stroke="rgb(204, 204, 204)" stroke-width="1px"></line><line x1="260.3333333333333" y1="0" x2="260.3333333333333" y2="5" style="visibility: inherit;" fill="rgb(0, 0, 0)" stroke="rgb(204, 204, 204)" stroke-width="1px"></line><line x1="284" y1="0" x2="284" y2="5" style="visibility: inherit;" fill="rgb(0, 0, 0)" stroke="rgb(204, 204, 204)" stroke-width="1px"></line></g><g transform="translate(0, 8)"><text x="0" y="0" dx="0em" dy="0.95em" style="text-anchor: middle; visibility: hidden; font-family: &quot;Helvetica Neue&quot;, sans-serif; font-size: 12px; font-weight: 200;" fill="rgb(50, 49, 63)" stroke="none" stroke-width="1px">-10</text><text x="23.666666666666664" y="0" dx="0em" dy="0.95em" style="text-anchor: middle; visibility: inherit; font-family: &quot;Helvetica Neue&quot;, sans-serif; font-size: 12px; font-weight: 200;" fill="rgb(50, 49, 63)" stroke="none" stroke-width="1px">0</text><text x="47.33333333333333" y="0" dx="0em" dy="0.95em" style="text-anchor: middle; visibility: inherit; font-family: &quot;Helvetica Neue&quot;, sans-serif; font-size: 12px; font-weight: 200;" fill="rgb(50, 49, 63)" stroke="none" stroke-width="1px">10</text><text x="71" y="0" dx="0em" dy="0.95em" style="text-anchor: middle; visibility: inherit; font-family: &quot;Helvetica Neue&quot;, sans-serif; font-size: 12px; font-weight: 200;" fill="rgb(50, 49, 63)" stroke="none" stroke-width="1px">20</text><text x="94.66666666666666" y="0" dx="0em" dy="0.95em" style="text-anchor: middle; visibility: inherit; font-family: &quot;Helvetica Neue&quot;, sans-serif; font-size: 12px; font-weight: 200;" fill="rgb(50, 49, 63)" stroke="none" stroke-width="1px">30</text><text x="118.33333333333334" y="0" dx="0em" dy="0.95em" style="text-anchor: middle; visibility: inherit; font-family: &quot;Helvetica Neue&quot;, sans-serif; font-size: 12px; font-weight: 200;" fill="rgb(50, 49, 63)" stroke="none" stroke-width="1px">40</text><text x="142" y="0" dx="0em" dy="0.95em" style="text-anchor: middle; visibility: inherit; font-family: &quot;Helvetica Neue&quot;, sans-serif; font-size: 12px; font-weight: 200;" fill="rgb(50, 49, 63)" stroke="none" stroke-width="1px">50</text><text x="165.66666666666669" y="0" dx="0em" dy="0.95em" style="text-anchor: middle; visibility: inherit; font-family: &quot;Helvetica Neue&quot;, sans-serif; font-size: 12px; font-weight: 200;" fill="rgb(50, 49, 63)" stroke="none" stroke-width="1px">60</text><text x="189.33333333333331" y="0" dx="0em" dy="0.95em" style="text-anchor: middle; visibility: inherit; font-family: &quot;Helvetica Neue&quot;, sans-serif; font-size: 12px; font-weight: 200;" fill="rgb(50, 49, 63)" stroke="none" stroke-width="1px">70</text><text x="213" y="0" dx="0em" dy="0.95em" style="text-anchor: middle; visibility: inherit; font-family: &quot;Helvetica Neue&quot;, sans-serif; font-size: 12px; font-weight: 200;" fill="rgb(50, 49, 63)" stroke="none" stroke-width="1px">80</text><text x="236.66666666666669" y="0" dx="0em" dy="0.95em" style="text-anchor: middle; visibility: inherit; font-family: &quot;Helvetica Neue&quot;, sans-serif; font-size: 12px; font-weight: 200;" fill="rgb(50, 49, 63)" stroke="none" stroke-width="1px">90</text><text x="260.3333333333333" y="0" dx="0em" dy="0.95em" style="text-anchor: middle; visibility: inherit; font-family: &quot;Helvetica Neue&quot;, sans-serif; font-size: 12px; font-weight: 200;" fill="rgb(50, 49, 63)" stroke="none" stroke-width="1px">100</text><text x="284" y="0" dx="0em" dy="0.95em" style="text-anchor: middle; visibility: hidden; font-family: &quot;Helvetica Neue&quot;, sans-serif; font-size: 12px; font-weight: 200;" fill="rgb(50, 49, 63)" stroke="none" stroke-width="1px">110</text></g><line x1="0" y1="0" x2="284" y2="0" fill="rgb(0, 0, 0)" stroke="rgb(204, 204, 204)" stroke-width="1px"></line></g></g></g></g></svg>